<?xml version="1.0" encoding="utf-8"?>
<!-- Generator: Adobe Illustrator 21.1.0, SVG Export Plug-In . SVG Version: 6.00 Build 0)  -->
<!DOCTYPE svg PUBLIC "-//W3C//DTD SVG 1.1//EN" "http://www.w3.org/Graphics/SVG/1.1/DTD/svg11.dtd">
<svg version="1.1" id="Layer_1" xmlns="http://www.w3.org/2000/svg" xmlns:xlink="http://www.w3.org/1999/xlink" x="0px" y="0px"
	 viewBox="0 0 252.3 298.7" style="enable-background:new 0 0 252.3 298.7;" xml:space="preserve">
<style type="text/css">
	.st0{fill:#005BA8;}
	.st1{fill:#FFC627;}
	.st2{fill:#FFFFFF;}
	.st3{fill:#FFC425;}
	.st4{fill:#DA1A32;}
	.st5{fill:#00438C;}
</style>
<g>
	<g>
		<path class="st0" d="M102.1,116.9c0,0,0-0.1,0-0.1c0,0,0,0,0,0L102.1,116.9z"/>
		<path class="st0" d="M91.6,80.1c-0.2-0.6-0.5-1.2-0.7-1.8c-0.1-0.1-0.1-0.3-0.2-0.4c-0.2-0.5-0.4-1-0.5-1.5
			c-0.1-0.2-0.1-0.4-0.2-0.5c-0.2-0.6-0.4-1.3-0.6-2c-3.4-11.4-2.3-19.9-0.2-25.7c-2.5,5.8-4.3,14.9-0.6,27.5
			c1.8,6.1,4.1,11.3,6.6,15.7c0.4,0.7,0.8,1.3,1.2,1.9c0.1,0.1,0.1,0.2,0.2,0.3c0.4,0.6,0.8,1.2,1.2,1.7c0.1,0.1,0.2,0.2,0.3,0.4
			c0.4,0.5,0.8,1.1,1.2,1.6c0.1,0.1,0.2,0.2,0.2,0.3c0.4,0.5,0.7,0.9,1,1.3c0.1,0.1,0.2,0.2,0.2,0.3c0.4,0.4,0.7,0.9,1.1,1.3
			c0.1,0.2,0.3,0.3,0.4,0.5c0.3,0.4,0.7,0.8,1,1.1c0.2,0.2,0.3,0.4,0.5,0.5c0.2,0.2,0.5,0.5,0.7,0.7c0.3,0.3,0.5,0.5,0.8,0.8
			c0.2,0.2,0.3,0.3,0.5,0.5c0.4,0.4,0.7,0.7,1.1,1c0.1,0.1,0.2,0.2,0.3,0.3c0.2,0.2,0.5,0.4,0.7,0.6c0,0,0,0,0,0c0,0,0,0,0,0
			c0.2,0.2,0.4,0.3,0.6,0.5c1.5,1.3,2.9,2.4,4.2,3.2c0.4,0.3,0.8,0.5,1.1,0.7c0.1,0.1,0.2,0.1,0.3,0.2c0.4,0.2,0.8,0.5,1.1,0.6
			c0.3,0.2,0.6,0.3,0.8,0.4c0.9-0.2,2-0.4,3.2-0.7c-0.2-0.1-0.4-0.2-0.6-0.3c-0.7-0.3-1.5-0.7-2.4-1.2c0,0,0,0,0,0
			c0.8,0.5,1.6,0.9,2.3,1.2c1.4-0.1,2.8-0.3,4.2-0.5c12.6-1.9,23.8-8,32.2-16.8c0.2-0.2,0.5-0.5,0.7-0.7c-2-1.7-3.9-3.3-5.9-5
			c0,0,0,0,0,0C129.5,71,108.6,53.4,93.8,41c-0.2,0.2-0.5,0.5-0.7,0.9c14.9,12.4,36,30,56.1,47c-9.4,9.8-22.1,16.4-36.3,17.4
			c-0.7,0.1-1.4,0.1-2.1,0.1c0,0,0,0,0,0c-0.2-0.2-0.5-0.4-0.7-0.5c-0.1-0.1-0.3-0.2-0.4-0.3c-0.2-0.1-0.3-0.3-0.5-0.4
			c-0.1-0.1-0.3-0.2-0.4-0.3c-0.2-0.2-0.5-0.4-0.7-0.6c-0.1-0.1-0.3-0.2-0.4-0.4c-0.2-0.2-0.4-0.3-0.6-0.5c-0.1-0.1-0.2-0.2-0.4-0.3
			c-0.2-0.2-0.4-0.4-0.6-0.6c-0.1-0.1-0.2-0.2-0.3-0.3c-0.3-0.3-0.6-0.5-0.8-0.8c-0.1-0.1-0.2-0.2-0.3-0.3c-0.2-0.2-0.4-0.4-0.6-0.6
			c-0.1-0.1-0.2-0.2-0.3-0.3c-0.3-0.3-0.6-0.6-0.9-1c-0.1-0.1-0.1-0.1-0.2-0.2c-0.2-0.3-0.5-0.5-0.7-0.8c-0.1-0.1-0.2-0.3-0.3-0.4
			c-0.2-0.3-0.5-0.6-0.7-0.8c-0.1-0.1-0.2-0.2-0.2-0.3c-0.3-0.4-0.6-0.8-0.9-1.1c-0.1-0.1-0.2-0.2-0.2-0.3c-0.2-0.3-0.4-0.6-0.7-0.9
			c-0.1-0.1-0.2-0.3-0.3-0.4c-0.3-0.4-0.6-0.8-0.8-1.3c0-0.1-0.1-0.1-0.1-0.1c-0.3-0.4-0.5-0.8-0.8-1.2c-0.1-0.2-0.2-0.3-0.3-0.4
			c-0.2-0.4-0.4-0.7-0.6-1.1c-0.1-0.1-0.1-0.2-0.2-0.3c-0.3-0.5-0.5-1-0.8-1.5c-0.1-0.1-0.1-0.2-0.2-0.4c-0.2-0.4-0.4-0.8-0.6-1.2
			c-0.1-0.2-0.2-0.3-0.2-0.5c-0.3-0.5-0.5-1.1-0.8-1.6c0,0,0-0.1,0-0.1c-0.2-0.5-0.5-1.1-0.7-1.6c-0.1-0.2-0.1-0.3-0.2-0.5
			c-0.2-0.5-0.4-0.9-0.6-1.4C91.7,80.3,91.7,80.2,91.6,80.1z"/>
		<path class="st0" d="M106.9,262.7c1.3-1.8,2.8-3.8,4.4-5.9c0.1-0.2,0.2-0.3,0.3-0.5c0,0,0,0,0,0L106.9,262.7z"/>
		<path class="st0" d="M82.5,99.9C82.5,99.9,82.4,99.9,82.5,99.9c0.5,0.6,1,1.2,1.6,1.8c0,0,0,0,0,0l0.2,0.2
			c1.3,0.9,2.4,1.6,3.8,2.4c0.5,0.3,1,0.5,1.4,0.8c0.2,0.1,0.5,0.3,0.7,0.4c0.4,0.2,0.7,0.4,1.1,0.5c4.9,2.4,10.3,4.1,15.9,4.9
			c1.4,0.2,2.9,0.4,4.3,0.4c0.3,0,0.7,0,1,0.1c-0.3-0.2-0.7-0.4-1-0.7c-0.1-0.1-0.2-0.2-0.4-0.3c-0.1,0-0.1-0.1-0.2-0.1
			c0,0-0.1-0.1-0.1-0.1c-0.1-0.1-0.1-0.1-0.2-0.2c-0.1-0.1-0.2-0.1-0.2-0.2c-0.5-0.4-1-0.7-1.5-1.1c0,0-0.1-0.1-0.1-0.1
			c-0.5-0.4-1-0.8-1.5-1.2c-0.1-0.1-0.2-0.2-0.4-0.3c-1.1-0.9-2.2-1.9-3.4-3.1C97.4,98.2,91,89.1,87,75.6C84.4,67,84.5,60,85.5,54.7
			c0.5-3,1.3-5.5,2.2-7.6c1.7-3.8,3.6-6.2,4.6-7.3c-0.2-0.1-0.3-0.3-0.5-0.4c-4.2-3.5-7.8-6.6-10.7-9c-0.2,0.2-0.4,0.5-0.7,0.9
			c2.8,2.4,6.2,5.2,10.1,8.5c-2.5,2.7-11.5,14.4-5.2,35.9c4.4,15,12.3,24.6,19.3,30.5c-7.9-0.7-15.2-3.4-21.3-7.6
			c-0.5-0.6-0.9-1.1-1.4-1.7c-0.1-0.1-0.1-0.2-0.2-0.2c-0.4-0.6-0.9-1.1-1.3-1.7c-0.1-0.1-0.1-0.2-0.2-0.2c-0.9-1.2-1.7-2.4-2.5-3.6
			c0-0.1-0.1-0.2-0.2-0.2c-0.4-0.6-0.7-1.2-1.1-1.8c0-0.1-0.1-0.2-0.2-0.3c-0.4-0.6-0.7-1.3-1-1.9c0,0,0-0.1,0-0.1
			c-0.3-0.6-0.6-1.3-0.9-1.9c0-0.1-0.1-0.2-0.1-0.3c-0.3-0.6-0.6-1.3-0.8-1.9c-0.1-0.1-0.1-0.2-0.1-0.3c-0.2-0.7-0.5-1.3-0.7-2
			c0-0.1-0.1-0.2-0.1-0.2c-0.2-0.6-0.4-1.3-0.6-1.9c0-0.1,0-0.2-0.1-0.2c-0.2-0.7-0.4-1.4-0.5-2c0-0.1-0.1-0.3-0.1-0.4
			c-0.2-0.7-0.3-1.4-0.4-2c0-0.1-0.1-0.2-0.1-0.3c-0.1-0.7-0.2-1.4-0.3-2c0,0,0-0.1,0-0.2c-0.1-0.7-0.2-1.4-0.2-2.1
			c0-0.1,0-0.3,0-0.4c-0.1-0.7-0.1-1.4-0.1-2.1c0-0.1,0-0.3,0-0.4c0-0.7,0-1.5,0-2.2c0.2-8.6,2-15.9,4.2-21.5
			c-2.5,5.9-4.6,13.7-4.9,23.3c-0.2,6.8,1.3,13.5,3.8,19.6c0.3,0.6,0.6,1.2,0.8,1.8c2.2,4.6,4.6,8.7,7.8,12.4
			C82.1,99.6,82.3,99.8,82.5,99.9C82.5,99.9,82.5,99.9,82.5,99.9z"/>
		<path class="st0" d="M178.5,252.5c-8.7,18.5-15.9,33.4-16,33.4c0,0,0,0,0,0c0.1-0.4,3.6-8.1,8.7-19.2l1-8.2l0.9-7.5
			c0,0-7.9,1.1-16.5-0.6l-9.6,16.4l0.5-0.8l-9.5,16.2l0,0c-0.1,0.1-0.1,0.2-0.1,0.2c0,0,0,0,0,0v0l0,0.1c0,0,0.1-0.1,0.1-0.1
			c0,0,0,0,0,0c0,0,0,0,0.1,0c0.1,0,0.1,0.1,0.1,0.1c0,0.1,0,0.1,0,0.1l21.7,7.2c0,0-20.2-6.5-21.1-5.9c-0.8,0.6-1.1,4.8-1.1,5.7
			l0,0.2c-0.4-0.2-0.4-0.3-0.5-0.3c-0.2-0.1-0.3-0.1-0.5-0.2l0.3-7c0-0.1,0-0.2,0.1-0.3c0-0.2,0.1-0.3,0.2-0.5l0,0l0,0c0,0,0,0,0,0
			l18.2-31.1c-0.1,0.1-0.1,0.2-0.1,0.2l0.2-0.6c-0.1,0-0.2-0.1-0.3-0.1c0,0,0,0,0,0c-2.1-0.5-4.2-1.2-6.2-2.2
			c-3.6,7.6-11,12.9-19.8,13.7c0,0,0,0,0,0c-5.4,8-9.4,14-9.8,14.5c0,0,0,0,0,0s0,0,0,0c0.1-0.1,0.2-0.3,0.4-0.5l-0.3,0.6l-0.1,0.1
			l0.5,0.2l2.7,0.9c0,0,0,0,0,0c0,0,0,0,0,0l-2.7-0.9l-0.4-0.1c0,0,0,0.1,0,0.1c0,0.1-0.1,0.1-0.1,0.1l1,0.3l15.9,5.3
			c0,0-15.3-4.9-16.1-4.3c-0.5,0.3-0.8,2.1-0.9,3.6c0,0.8,0,1.6,0,2.2c-0.4-0.1-0.4-0.3-0.5-0.4c-0.2,0-0.3-0.1-0.5-0.2
			c0-2.5,0.1-6.8,0.1-6.8c0,0,0,0,0,0c0-0.1,0-0.2,0.1-0.4c0-0.1,0.1-0.2,0.2-0.4l0,0l9.4-13.9c-0.2,0-0.4,0-0.7,0c0,0,0,0,0,0
			c0,0-0.1,0-0.1,0c-1.2,0-2.3-0.1-3.4-0.2l-5.8,12.8c0.2,0.2,0.3,0.4,0.5,0.5l-0.3,0.5l-0.1,0.2c-0.1,0.1-0.2,0.3-0.2,0.4l-0.6-0.2
			l-15.2-5c0,0.1-0.1,0.1-0.1,0.1l15.3,5.1l0.6,0.2l0,0c0,0,0,0,0,0c0,0-0.3-0.1-0.6-0.2c-2.8-0.9-13.8-4.3-14.6-3.8
			c-0.7,0.5-0.8,4-0.8,5.4l0,0.6c-0.4-0.1-0.4-0.3-0.5-0.3c-0.2-0.1-0.4-0.1-0.5-0.2c-0.1-2.4-0.2-7.1-0.2-7c0,0,0-0.2,0-0.3
			c0-0.2,0.1-0.4,0.3-0.6l10.3-13.8c-0.1-0.1-0.3-0.2-0.4-0.4c0,0,0,0,0,0l-10.4,14c-0.2,0.2-0.2,0.4-0.3,0.6l-15.4-5.1l-0.5-0.2
			l-0.1,0c0,0,0,0,0,0c0,0.1-0.1,0.1-0.1,0.1l0.6,0.2l0.5,0.2l14.9,4.9c-0.9-0.3-14.4-4.7-15.3-4.1c-0.9,0.6-0.7,6-0.7,6l-0.2-5.3
			l0.2,5.4c-0.4-0.1-0.4-0.3-0.5-0.4l0,0c-0.2-0.1-0.4-0.1-0.5-0.2c-0.1-2.3-0.2-6.7-0.2-6.7c0-0.1,0-0.3,0.1-0.5
			c0-0.1,0.1-0.3,0.2-0.4l0-0.1l0.1-0.2L96,247.4h-0.7h0l-12.9,15.7l-0.1,0.2l-0.2,0.2c-0.1,0.1-0.2,0.3-0.2,0.4l-15.3-5.1l0,0
			c0-0.4,0.3-0.5,0.3-0.5l9.8-10.9H74c-5.1,5.6-8.5,9.4-8.5,9.5c-0.4,0.4-0.7,0.9-0.8,1.6l0,1l0-0.2l0.7,6.5
			c0.2,1.5,1.1,2.3,1.9,2.5l14,4.7c0,0,0.3,0,0.7,0c0,0,0.2,0.1,0.3,0.1c0.3,0.2,0.6,0.4,0.6,0.4c0,0,16.3,5.5,16.3,5.5s0.3,0,0.7,0
			c0.1,0,0.3,0.1,0.4,0.1c0.3,0.2,0.6,0.4,0.6,0.4c0,0,15.9,5.3,15.9,5.3c0,0,0.3,0,0.7,0c0.1,0,0.3,0.1,0.3,0.1
			c0.3,0.2,0.6,0.4,0.6,0.4l17.1,5.7c0,0,0.3,0,0.7,0.1c0.1,0,0.2,0.1,0.3,0.1c0.3,0.2,0.7,0.5,0.7,0.5l-0.1-0.1
			c14.3,4.8,20.6,6.9,21,7c0,0,0.4,0.1,0.4,0.1c0.8,0.2,1.6,0.1,2.4-0.2c1.3-0.6,1.8-1.7,1.9-2c0,0.1,0.8-1.7,0.8-1.7l29-62h-4.7
			C185.1,238.4,181.9,245.3,178.5,252.5z M67.1,264.2c0-0.1,0-0.1,0-0.2l-0.5-5l0,0l0,0l15.3,5.1c0,0-13.5-4.3-14.4-3.7
			c-0.5,0.4-0.5,2.2-0.4,3.6l0.2,1.7c0,0,0-0.1,0-0.3C67.2,265.2,67.2,264.7,67.1,264.2z M160.1,295.9l0,0.2c0,0,0,0,0,0.1l0,0
			c0,0.1,0,0.1,0,0.1c-0.3,0.7-1.2,0.7-1.2,0.7c0.9-0.1,1-1,1-1l0.4-3.2l0.2-1.9l0,0c0,0,0,0,0,0c0,0,0,0,0,0.1c0,0.3-0.1,1-0.1,1.8
			C160.2,294,160.1,295.3,160.1,295.9z"/>
		<path class="st0" d="M80.6,102.5l1.9,1.5l0.9,0.6c0,0,0,0,0,0c0,0,0.1,0.1,0.1,0.1c1.2,0.8,2.5,1.7,3.8,2.5c0,0,0.1,0.1,0.1,0.1
			c0.1,0,0.9,0.7,0.9,0.7l0.1,0c1.2,0.6,2.6,1.3,3.8,1.9l0.1-0.1c3.2,1.5,6.5,2.7,10,3.6c-0.1,0.6-0.2,1.1-0.2,1.7
			c0,0.2,0,0.3,0,0.5c0,0,0.1,0.8,0.1,1.1c0.2,1.7,0.9,3.4,2.4,5c0.4,0.5,0.9,0.9,1.4,1.4c0.2,0.8,8.1,29.3,9.1,32.7h1.9l-9.2-33.3
			c0.9,0.7,2,1.5,3.3,2.2l8.1,31.1h7.4h0.2h0h0.2h0.1c-0.1-1.3-0.2-2.6-0.3-3.9c-0.1-1.3-0.2-2.6-0.3-3.9l-0.7-9.5
			c-0.1-1.5,0.2-2.7,0.8-3.5c0,0,0,0,0,0c0.1,0,0.1,0.1,0.2,0.1c0,0,0,0,0,0c0.1,0,0.1,0.1,0.2,0.1c0,0,0.1,0,0.1,0.1
			c0,0-0.1,0.1-0.1,0.1c-0.6,0.7-0.8,1.9-0.7,3.5c0.2,2,0.7,8.9,1.3,16.9h0.2c-0.6-8.3-1.2-15.3-1.3-16.9c-0.1-1.5,0-2.5,0.5-3.2
			c0.1-0.1,0.1-0.2,0.2-0.3c0,0,0,0,0,0c0,0,0,0,0,0c0,0,0,0,0,0c-0.1,0.1-0.2,0.2-0.2,0.4c-0.5,0.7-0.7,1.8-0.5,3.3
			c0.2,2,0.7,8.8,1.3,16.7h0.2h0c-0.6-8.2-1.2-15.1-1.3-16.7c0-0.4-0.1-0.8,0-1.1c0-0.8,0.2-1.4,0.4-1.9c0.1-0.2,0.2-0.4,0.4-0.5
			c0,0,0,0,0,0c0.4,0.2,0.8,0.3,1.2,0.4c0.8,0.2,1.6,0.1,2.2-0.2c0,0,0,0,0,0c0,0,0.1,0.1,0.1,0.1c0,0,0,0,0,0
			c2.9,2.8,5.3,10.9,7.8,19.9h0.2h0h0.1h0c-2.7-9.8-5.3-18.5-8.6-20.5c0,0-0.1,0-0.1,0c0,0,0,0,0,0c-0.4-0.3-0.8-0.4-1.2-0.5
			c0,0,0,0,0,0c-0.2,0-0.3-0.1-0.5-0.1c0,0-0.2,0-0.5,0c-0.3-0.1-0.5-0.2-0.8-0.3c0,0,0,0,0,0c0.1,0.1,0.3,0.1,0.4,0.2
			c-0.2-0.1-0.4-0.2-0.6-0.3c0,0,0,0,0,0c0.8-0.4,1.6-0.4,1.7-0.4c0.6,0,1.1,0.2,1.7,0.4c0.1,0.1,0.2,0.1,0.3,0.2c0,0-0.1,0-0.1-0.1
			c3.4,2.2,6,10,8.7,19.2c0.2,0.7,0.4,1.4,0.6,2.1h0.2h0h0.1h0.1c-0.4-1.5-0.8-2.9-1.3-4.3c-2.3-7.7-4.6-14.1-7.5-16.6c0,0,0,0,0,0
			c0,0,0,0,0,0c0.1-0.3,0.2-0.5,0.2-0.8c0-1-0.8-2-1.8-2.6c-0.1-0.1-0.2-0.1-0.3-0.2c0,0,0,0,0,0c-0.1-0.1-0.2-0.1-0.2-0.2
			c2.3,0.5,4.7,1,7.2,1.5c0.1,0,0.2,0,0.3,0.1c6.6,1.3,12.9,2.2,18.5,2.9c0.5,0.1,0.9,0.1,1.4,0.2c2.4,0.3,4.6,0.6,6.7,0.8
			c0.7,0.1,1.4,0.1,2.1,0.2c0.1,0,0.2,0,0.3,0c0.2,0,0.3,0,0.5,0c0.1,0,0.2,0,0.3,0c0.1,0,0.2,0,0.4,0c0,0,0,0,0,0
			c0.3,0,0.6,0.1,0.9,0.1c0.6,0.1,1.2,0.1,1.8,0.2c0.1,0,0.3,0,0.4,0c4.8,0.4,7.9,0.5,8.5,0.5c0.1,0,0.1,0,0.2,0c0.1,0,0.2,0,0.3,0
			c0.2,0,0.4-0.1,0.5-0.1c0.4-0.1,0.7-0.4,0.9-0.5c-0.2,0.4-0.6,0.6-0.9,0.7c-0.1,2-0.6,8.1-1.2,16.4c0,0.6-0.1,1.1-0.1,1.7h0.1h1.8
			c0.2-7.6,0.3-12.9,0.3-12.9c0-0.1,0.2-2.6,0.3-3.9c1.6-0.6,1.7-2.8,1.7-2.8c0-2.4-1.1-3-1.8-3.3c0.1-1.8,0.2-12.6,0.2-12.6
			l-11.5-1.7c0,0-3-0.5-3-0.5l-9.3-1.5c-9.3-1.6-16.7-3.1-22.1-4.5c9.1-3.1,17.3-8.4,23.8-15.5c0,0,0.3-0.3,0.3-0.3l0.1-0.2
			c0,0,0.1-0.1,0.1-0.1l1-1.1c8.1-9.5,12.8-21.2,13.6-33.6l0-0.2l0-0.7l0-1c0-0.1,0-1.7,0-1.7c0-14.4-5.4-28.3-15.1-38.9
			c-0.3-0.4-0.8-1-1.4-1.5c-0.2-0.3-0.4-0.5-0.4-0.5s0,0,0,0c-1.2-1.2-2.6-2.5-3.5-3.2c0,0-0.1-0.1-0.1-0.1c0,0-0.1-0.1-0.1-0.1
			c-0.2-0.1-0.3-0.2-0.5-0.3c-1.4-1.1-3-2.4-4.8-3.5c0,0-0.1,0-0.1,0l-0.2-0.1c0,0-0.4-0.3-0.4-0.3l-1.4-0.9
			C137.3,2.8,127.1,0,116.6,0C99.8,0,83.8,7.4,72.8,20.2c-0.1,0-0.6,0.8-0.6,0.8c0,0-0.1,0.2-0.1,0.2l-0.1,0.1l-0.2,0.3
			c0,0-0.5,0.6-0.5,0.6C63.3,32.3,59,44.6,59,57.6C59,75.2,66.9,91.5,80.6,102.5z M125.4,137.8c0-1.3,0.2-2.3,0.8-2.9c0,0,0,0,0,0
			C125.6,135.6,125.4,136.6,125.4,137.8z M124.9,132.4c0-0.5,0.2-1,0.6-1.3c0.2-0.1,0.3-0.2,0.5-0.3c0,0,0,0,0,0c0,0,0,0,0,0
			c-0.2,0.1-0.3,0.2-0.5,0.3c-0.4,0.4-0.7,0.9-0.6,1.4C124.9,132.5,124.9,132.5,124.9,132.4z M122.6,129.2c1,0.3,2.1,0.6,3.2,0.9
			c0.4,0.1,0.7,0.2,1.1,0.3c-0.4,0-0.7,0.1-1,0.2c-0.2,0.1-0.5,0.2-0.6,0.4c-0.4,0.4-0.7,0.9-0.7,1.5c0,0.8,0.5,1.6,1.3,2.3
			c-0.6,0.8-0.9,2-0.8,3.6l0.7,9.1L122.6,129.2z M130.5,135.6C130.5,135.6,130.5,135.6,130.5,135.6
			C130.5,135.6,130.4,135.7,130.5,135.6C130.4,135.7,130.5,135.6,130.5,135.6z M126,132.7c0-0.2,0.1-0.4,0.2-0.6
			c0-0.1,0.1-0.1,0.1-0.2c0.1-0.1,0.2-0.2,0.4-0.2c-0.1,0.1-0.2,0.1-0.3,0.2c-0.1,0.1-0.1,0.2-0.2,0.3
			C126.1,132.3,126,132.5,126,132.7C126,132.7,126,132.7,126,132.7z M126.4,133.5c-0.1-0.2-0.2-0.5-0.2-0.7c0-0.1,0-0.2,0.1-0.3
			c0-0.2,0.1-0.3,0.3-0.5c0.4-0.3,1-0.4,1.7-0.3c0.4,0.1,0.7,0.2,1,0.4c0,0,0,0,0,0c0.6,0.4,1,0.9,1,1.5c0,0.1,0,0.2,0,0.3
			c-0.5-0.2-1-0.4-1.6-0.4c0,0-0.9-0.1-1.8,0.4c0,0.1,0.1,0.1,0.2,0.2c0.1,0,0.2-0.1,0.2-0.1c-0.1,0-0.2,0.1-0.2,0.1c0,0,0,0,0,0
			c0,0,0,0,0,0c-0.1,0-0.1-0.1-0.2-0.2C126.7,133.9,126.5,133.7,126.4,133.5z M130.5,133.8C130.5,133.8,130.5,133.8,130.5,133.8
			C130.5,133.8,130.5,133.8,130.5,133.8C130.5,133.8,130.5,133.8,130.5,133.8z M130.4,134.1c0-0.1,0-0.1,0.1-0.2
			C130.5,133.9,130.5,134,130.4,134.1C130.5,134.1,130.5,134.1,130.4,134.1z M131.5,134.7C131.5,134.7,131.5,134.7,131.5,134.7
			c-0.1-0.1-0.2-0.1-0.2-0.1c0,0,0,0,0,0c-0.2-0.1-0.4-0.3-0.6-0.4c0,0,0,0,0,0c0-0.1,0.1-0.3,0.1-0.4c0-0.7-0.5-1.3-1.3-1.8
			c0,0-0.1,0-0.1-0.1c0,0,0,0,0,0c-0.4-0.3-0.8-0.5-1.3-0.6c-0.8-0.2-1.5,0-1.9,0.3c0,0,0,0,0,0c-0.3,0.2-0.4,0.5-0.4,0.9
			c0,0.5,0.3,1,0.8,1.4c0.1,0.1,0.3,0.2,0.5,0.4c0.2,0.1,0.3,0.2,0.5,0.3c0.3,0.1,0.6,0.2,0.9,0.3c0.4,0.1,0.7,0.1,1,0v0
			c0.2,0,0.5,0.2,0.7,0.3c0.1,0,0.1,0.1,0.2,0.1c-0.6,0.2-1.3,0.3-2,0.1c-0.4-0.1-0.8-0.2-1.2-0.4c0.1,0.1,0.2,0.1,0.3,0.2
			c-0.2-0.1-0.4-0.2-0.6-0.4c0,0,0,0,0,0c-0.9-0.6-1.5-1.5-1.5-2.4c0-0.5,0.2-1,0.6-1.3c0.1-0.1,0.2-0.1,0.4-0.2
			c0.6-0.3,1.4-0.4,2.2-0.2c0.5,0.1,1,0.3,1.4,0.5c0.1,0.1,0.2,0.1,0.3,0.2c0.8,0.6,1.4,1.5,1.5,2.3c0,0.3,0,0.5-0.1,0.7
			C131.3,134.6,131.4,134.7,131.5,134.7c0.1-0.3,0.1-0.6,0.1-0.8c0,0,0,0.1,0,0.1C131.6,134.3,131.6,134.5,131.5,134.7
			C131.5,134.7,131.5,134.7,131.5,134.7z M171.8,131.1C171.8,131.1,171.8,131.1,171.8,131.1c-0.1-0.1-0.3-0.2-0.4-0.3c0,0,0,0,0,0
			c0,0,0,0,0,0c0,0,0,0,0,0c0.4,0.4,1,0.7,1.6,1.1c0,0-1.6-0.8-2.7-2c0.1,0.1,0.2,0.3,0.3,0.4c0,0-0.3-0.2-0.5-0.6
			c-0.1-0.1-0.1-0.2-0.2-0.3c-0.8-1.1-1.4-3.2,2.3-5.1c0.1,0,0.1-0.1,0.1-0.1c0,0-0.1,0-0.1,0.1c-0.1,0-0.1,0.1-0.2,0.1
			c2-1.2,4.7-1.8,6.2-2.2c0.7-0.2,1.2-0.2,1.2-0.2l0.1,1.6l0,0.7c0,0,0-0.1,0-0.1c-0.4-1.4-8.6-0.6-9.4,3c-0.6,2.7,4.7,5.2,7.5,6.2
			c0.9,0.3,1.5,0.5,1.6,0.6c0,0,0,0,0,0s0,0,0,0c-0.3-0.1-2.1-0.6-4.1-1.5C174,132.3,172.8,131.8,171.8,131.1z M171.6,53.5
			c-0.3-0.6-0.7-1.4-1.1-2.1c-0.1-0.8-0.1-1.5-0.2-2.3c0-0.3-0.1-0.5-0.1-0.8c-0.1-0.5-0.1-1-0.2-1.5c-0.1-0.3-0.1-0.6-0.2-0.9
			c-0.1-0.4-0.2-0.8-0.2-1.3c-0.1-0.3-0.1-0.7-0.2-1c-0.1-0.4-0.2-0.8-0.3-1.1c-0.1-0.4-0.2-0.7-0.3-1.1c-0.1-0.3-0.2-0.7-0.3-1
			c-0.4-1.5-1-3.1-1.5-4.5c-0.1-0.2-0.1-0.3-0.2-0.5c-0.2-0.5-0.4-1-0.6-1.4c-0.1-0.2-0.1-0.3-0.2-0.5c-0.2-0.5-0.4-1-0.7-1.5
			c-0.1-0.1-0.1-0.3-0.2-0.4c-0.2-0.5-0.5-1-0.8-1.5c0,0,0-0.1-0.1-0.1c-1.5-2.9-3.3-5.6-5.3-8.2c0,0,0,0,0-0.1
			C166.2,30.5,170.8,41.5,171.6,53.5z M156.8,19.3c0.2,0.3,0.4,0.5,0.6,0.8c-0.4-0.5-0.8-0.9-1.2-1.4
			C156.5,18.9,156.7,19.1,156.8,19.3z M111.9,3.6c6-0.4,11.9,0.1,17.3,1.5c-2.4-0.2-4.8-0.1-7.2,0c0,0,0,0,0,0
			c-0.8,0.1-1.5,0.1-2.3,0.2c-0.1,0-0.1,0-0.2,0c-0.7,0.1-1.4,0.2-2.2,0.3c-0.1,0-0.2,0-0.3,0c-0.7,0.1-1.3,0.2-2,0.4
			c-0.2,0-0.3,0.1-0.5,0.1c-0.6,0.1-1.3,0.3-1.9,0.4c-0.2,0-0.4,0.1-0.6,0.1c-0.8,0.2-1.6,0.4-2.5,0.7c-6.8,2-12.8,5.6-17.6,9.2
			c-4.9,3.4-8.8,6.9-11.2,9.3c-0.7-0.6-1.4-1.2-2-1.7c-1.5-1.2-2.6-2.2-3.3-2.7C84.5,11.4,97.1,4.7,111.9,3.6z M72.9,25
			c1.1,0.9,2.8,2.3,5,4.2C75.6,32.1,66.6,44.8,66,65c-0.2,7.3,1.9,14.8,5.3,21.7c-5.6-8.1-8.8-18.2-8.8-29.3
			C62.5,45.2,66.3,34,72.9,25z M73.5,89.6c-3.9-7.3-6.1-15.6-5.9-23.9c0.2-5.8,1-10.9,2.2-15.4c0.8-3.3,1.9-6.3,2.9-8.9
			c2.7-6.5,5.7-10.7,6.9-12.2c-0.1-0.1-0.3-0.2-0.4-0.3c-2.6-2.2-4.7-3.9-5.8-4.8c0,0,0,0,0,0c0,0-0.1,0-0.1,0l0.3-0.4l0.1-0.2
			c0.2-0.2,0.4-0.5,0.6-0.7c0,0,0,0,0,0c0,0,0.1-0.1,0.1-0.1c0.4,0.3,0.9,0.8,1.6,1.4c0.1,0,0.1,0.1,0.2,0.1
			c0.1,0.1,0.2,0.2,0.4,0.3c0.1,0.1,0.2,0.1,0.2,0.2c0.6,0.5,1.3,1.1,2.1,1.8c0.2,0.2,0.5,0.4,0.7,0.6c-0.1,0.1-0.1,0.1-0.1,0.1
			c0.2,0.2,0.4,0.3,0.6,0.5c0.1,0.1,0.3,0.2,0.5,0.4c2.5-2.8,13.8-14.6,28.3-18.9c4.4-1.3,9.1-2.1,13.7-2.3c1.4-0.1,2.9-0.1,4.3-0.1
			c0.7,0,1.4,0,2.1,0c0.2,0,0.4,0,0.6,0c0.6,0,1.1,0.1,1.7,0.1c0.2,0,0.3,0,0.5,0c1.4,0.1,2.9,0.3,4.3,0.5c0.2,0.1,0.4,0.1,0.5,0.2
			c3.6,0.7,7,1.7,10,3.1c2.2,1.3,3.9,2.7,5.9,4.3c-3.1-2.1-6.8-3.7-10.8-4.8c12,6.9,20.6,18.8,22.7,33.4c0,0,0,0,0,0
			c-0.4-0.4-0.7-0.7-1.1-1.1c-0.1,0-0.1-0.1-0.2-0.2c-0.3-0.3-0.7-0.6-1.1-1c-0.1-0.1-0.2-0.2-0.3-0.2c-0.3-0.3-0.7-0.6-1-0.9
			c-0.1-0.1-0.3-0.2-0.4-0.3c-0.3-0.3-0.7-0.5-1-0.8c-0.2-0.1-0.3-0.2-0.5-0.4c-0.3-0.3-0.7-0.5-1.1-0.8c-0.2-0.1-0.4-0.3-0.6-0.4
			c-0.4-0.2-0.7-0.5-1.1-0.7c-0.2-0.1-0.4-0.3-0.6-0.4c-0.4-0.3-0.8-0.5-1.3-0.8c-0.2-0.1-0.4-0.2-0.6-0.4c-0.6-0.4-1.3-0.7-1.9-1.1
			c-17.6-9.7-39.4-12-54-0.6c-1.4,0.9-2.7,1.9-3.9,2.9c-4-3.4-7.5-6.3-10.4-8.7c-0.4,0.5-0.8,0.8-1.1,1.2c2.8,2.4,6.3,5.3,10.3,8.6
			c-0.1,0-0.1,0.1-0.1,0.1c0.1,0.1,0.3,0.2,0.4,0.3c0.2,0.2,0.4,0.3,0.5,0.5c7-7.2,16.2-10.5,26-10.8c0.1,0,0.2,0,0.4,0
			c10.3-0.5,21.3,2.5,31,7.9c6,3.3,10.4,6.9,13.7,10.4c0.1,0.1,0.1,0.1,0.2,0.2c1.9,2,3.4,3.9,4.5,5.5c0,0,0,0,0,0
			c0.2,0.3,0.4,0.5,0.5,0.8c0.2,0.3,0.3,0.5,0.5,0.8c0.7,1.1,1.1,2.2,1.5,3c0,0,0,0,0,0.1c0,0,0,0,0-0.1c0,0.3,0,0.6,0,0.9
			c0,0.8,0,1.5-0.1,2.2v0.1c0,0.5-0.1,1-0.1,1.5c-0.8,11.6-5.1,22.3-12,30.9c-0.5-0.5-1.1-0.9-1.6-1.4c7.2-9,11.7-20.3,12.2-32.6
			c0-0.4,0-0.9,0-1.4c-0.2-0.3-0.3-0.6-0.5-0.9c-0.1-0.1-0.1-0.2-0.2-0.3c-0.1-0.1-0.2-0.3-0.2-0.4c-0.3-0.4-0.5-0.8-0.8-1.3
			c-0.1-0.1-0.1-0.2-0.2-0.3c-0.2-0.2-0.3-0.5-0.5-0.7c-0.1-0.2-0.2-0.3-0.4-0.5c-0.1-0.2-0.2-0.3-0.3-0.5c-0.2-0.2-0.3-0.5-0.5-0.7
			c-0.1-0.1-0.1-0.2-0.2-0.3c-0.2-0.3-0.5-0.6-0.7-0.9c0,0,0,0,0,0c-0.3-0.3-0.6-0.7-0.9-1c0,0,0,0,0,0c-3.4-3.8-8.1-7.9-14.7-11.5
			c-9.3-5.1-19.9-8.1-29.8-7.9c9.4,0.2,19.2,3.1,28,7.9c7.5,4.1,12.9,8.8,16.5,12.9c0,0.1,0,0.1,0,0.2c0,13-4.8,25.3-12.8,35
			c-6.3-5.3-12.7-10.7-18.9-15.9l0,0c-1.2-1-2.3-1.9-3.4-2.9c-0.2-0.1-0.3-0.2-0.4-0.4c-1-0.9-2.1-1.7-3.1-2.6
			c-0.3-0.2-0.5-0.4-0.8-0.7c-1-0.8-1.9-1.6-2.9-2.4c-0.3-0.3-0.6-0.5-0.9-0.8c-0.9-0.8-1.8-1.5-2.7-2.3c-0.3-0.2-0.5-0.4-0.8-0.6
			c-1-0.8-2-1.7-3-2.5c-0.1-0.1-0.2-0.1-0.2-0.2c-1-0.8-1.9-1.6-2.9-2.4c-0.2-0.1-0.3-0.3-0.5-0.4c-0.9-0.8-1.9-1.6-2.8-2.3
			c-0.2-0.2-0.4-0.3-0.6-0.5c-0.9-0.8-1.9-1.6-2.8-2.3c-0.2-0.1-0.3-0.3-0.5-0.4c-0.9-0.8-1.9-1.5-2.8-2.3c-0.1-0.1-0.2-0.2-0.4-0.3
			c-0.9-0.7-1.8-1.5-2.6-2.2c-0.2-0.1-0.3-0.3-0.5-0.4c-0.9-0.7-1.7-1.4-2.5-2.1c-0.4,0.4-0.8,0.7-1.1,1.1c0.7,0.6,1.4,1.2,2.2,1.8
			c0.2,0.2,0.4,0.3,0.6,0.5c0.7,0.6,1.4,1.2,2.2,1.8c0.2,0.1,0.3,0.3,0.5,0.4c0.6,0.5,1.2,1,1.8,1.5c0.3,0.2,0.5,0.4,0.8,0.7
			c0.7,0.6,1.4,1.2,2.1,1.8c0.3,0.2,0.5,0.5,0.8,0.7c0.6,0.5,1.1,0.9,1.7,1.4c0.4,0.3,0.8,0.7,1.2,1c0.6,0.5,1.3,1.1,1.9,1.6
			c0.3,0.2,0.6,0.5,0.9,0.7c0.6,0.5,1.2,1,1.7,1.5c0.6,0.5,1.2,1,1.8,1.5c0.4,0.4,0.9,0.8,1.3,1.1c0.4,0.3,0.7,0.6,1.1,0.9
			c0.8,0.7,1.6,1.3,2.4,2c0.3,0.2,0.6,0.5,0.9,0.7c0.7,0.6,1.5,1.2,2.2,1.8c0.2,0.2,0.4,0.3,0.6,0.5c0.9,0.8,1.9,1.6,2.9,2.4
			c0.1,0.1,0.2,0.2,0.3,0.3c5.3,4.5,10.7,9.1,16.2,13.7c0.1,0,0.1,0.1,0.1,0.1c4.6,3.9,9.2,7.8,13.7,11.6c0,0,0.1-0.1,0.1-0.1
			c0.6,0.5,1.1,0.9,1.7,1.4c0,0-0.1,0.1-0.1,0.1c0,0,0,0,0,0c-0.2,0.3-0.5,0.5-0.7,0.8c-0.1,0.2-0.3,0.3-0.4,0.4
			c-0.2,0.3-0.5,0.5-0.7,0.8c-7.7,8.3-17.9,14.1-29.4,16.5c-1.3,0.3-2.6,0.5-3.9,0.7c0.8,0.1,1.7,0.3,2.6,0.5
			c1.5,0.4,2.9,0.9,4.1,1.4c-0.1,0-2.4,0.7-5.7,0.5c-0.6-0.5-1.7-0.7-2.6-1c-0.1,0-0.3-0.1-0.4-0.1l-1.4-0.1
			c0.2,0.2,0.2,0.4,0.3,0.6c-0.5-0.1-1.1-0.3-1.7-0.5l-2.3-0.2l0.6,0.4c0,0,1.4,0.8,3.6,1.3c-0.1,0.7-3.6,0.4-3.9,0.5
			c0.4,0.2,0.6,0.6,0.5,1c-0.2,0-0.3,0.2-0.5,0.2c0.6,0.7,1.5,1.3,2.1,2c-0.1,0.1-0.2,0.1-0.3,0.2c0,0.1,0,0.1,0,0.2
			c1.6,0.9,3.6,1.7,5.8,2.3c0.2,0.1,0.4,0.1,0.5,0.1c-0.5-0.7-1.3-1.3-1.8-1.9c-0.7-0.7-0.5-0.8-0.7-1.6c-0.1-0.8-0.4-0.8,0-1.3
			c0.1-0.1,0.1-0.2,0.2-0.3c0.4-0.4,0.9-0.6,1.3-0.9c1.9,0.1,4.1-0.2,6.2-1.3c0.3,0.1,0.7,0.3,1,0.4c3,1.5,4.9,3.5,4.6,5.1
			c-0.1,0.3-0.2,0.5-0.3,0.7c8.6,0.4,17.3-1,21.9-2c4.5,0.8,8.7,1.4,12.3,2c5.8,5.3-25.2,2.9-26.1,2.5c-1-0.4-7.3-2.1-7.7-0.8
			c-0.4,1.3-8.2,0.8-15.7-1.7c-7.5-2.5-14.2-4.6-14.2-4.6c0,0.2,0.1,0.3,0.1,0.5c0,0,0,0.1,0,0.1c0.4,1.7,2,3.3,4.3,4.8
			c0,0,0.1,0,0.1,0.1c2.9,1.8,7.1,3.4,11.9,4.8c1.1,0.3,2.2,0.6,3.3,0.9c11.9,3,27,5,38.3,6.3c0.8,0.1,1.6,0.2,2.4,0.3c0,0,0,0,0,0
			c0.2,0,0.3,0,0.5,0.1c1.2,0.1,2.4,0.2,3.5,0.3c0.1,0,0.3,0,0.4,0c1.3,0.1,2.4,0.2,3.5,0.3c0.3,0,0.6,0,0.9,0.1
			c1.9,0.2,3.4,0.3,4.4,0.3c0.7,0,1.1,0.1,1.1,0.1c0.3,0.3,0.6,0.8,0.6,1.5c0,0.3-0.1,0.5-0.1,0.6c-0.2,0.1-0.4,0.1-0.9,0.2
			c-0.2,0-0.3,0-0.5,0c-0.1,0-0.2,0-0.3,0c-1.6,0.1-4.4,0-8.7-0.4c-0.1,0-0.3,0-0.4,0c-0.9-0.1-1.9-0.2-2.9-0.3
			c-0.2,0-0.4,0-0.5-0.1c-0.2,0-0.3,0-0.5-0.1c-0.8-0.1-1.6-0.2-2.4-0.3c-6.3-0.8-14.5-2-25.4-3.8c-4.8-0.8-8.9-1.7-12.5-2.7
			c-1.1-0.3-2.2-0.6-3.3-0.9c-5.3-1.6-9.1-3.3-11.8-4.9c-1.4-0.8-2.5-1.6-3.4-2.4c-2.5-2.1-3.1-3.8-3.3-4.4c0-0.1,0-0.2-0.1-0.2
			c0,0,0,0,0,0c0,0,0,0,0,0c-0.1-0.4-0.1-0.7-0.1-1.1c-0.1-2,0.7-3.3,1.3-3.9c-6.4-1.5-12.9-4.1-18.2-7.2c0,0-0.6-0.4-1-0.6
			c-0.9-0.5-1.7-1.1-2.5-1.6c0,0-0.1-0.1-0.1-0.1l0,0c-3.8-3.6-7-7.6-9.5-12.1C73.8,90,73.7,89.8,73.5,89.6z"/>
		<path class="st0" d="M83.5,264.3C83.5,264.3,83.5,264.4,83.5,264.3C83.5,264.4,83.5,264.3,83.5,264.3c0,0,0.1-0.1,0.1-0.2
			c1-1.2,6.6-8,13.7-16.7h0c-7.1,8.7-12.7,15.5-13.7,16.7C83.6,264.2,83.6,264.3,83.5,264.3z"/>
		<path class="st0" d="M119,276.9l0-0.3l0-0.1c0,0,0,0,0,0c0,0,0,0.1,0,0.1C119,276.7,119,276.8,119,276.9z"/>
		<path class="st0" d="M119.1,276.2L119.1,276.2C119.1,276.2,119.1,276.2,119.1,276.2C119.1,276.2,119.1,276.2,119.1,276.2z"/>
		<path class="st0" d="M83.5,264.4c-0.1,0.1-0.1,0.2-0.1,0.2l0,0l0.1,0c0,0,0,0,0-0.1C83.4,264.5,83.5,264.5,83.5,264.4L83.5,264.4z
			"/>
		<path class="st0" d="M101.3,270.4C101.3,270.4,101.4,270.4,101.3,270.4L101.3,270.4L101.3,270.4z"/>
		<path class="st0" d="M101.4,270.5C101.4,270.5,101.3,270.4,101.4,270.5L101.4,270.5L101.4,270.5z"/>
		<path class="st0" d="M111.8,256.4l-0.3,0.4C111.6,256.6,111.7,256.5,111.8,256.4C111.8,256.4,111.8,256.4,111.8,256.4z"/>
		<path class="st0" d="M127.4,155.8l-0.4-2.2c0.1,0.7,0.1,1.5,0.2,2.2H127.4z"/>
		<path class="st0" d="M170.5,140.6c0.8,0.7,1.4,1.7,1.7,2.9c0,0.1,1.1,4.4,2.3,12.3h3.5c0.4-5.1,0.7-9.5,0.9-12.8
			c0.2-2.5,0.3-4.3,0.4-5.3c-0.1,0-0.2,0-0.3,0c-1.2,0-4.2-0.2-8.7-0.6l0,1c0.4,0.4,0.6,0.8,0.6,1.3
			C170.9,139.9,170.8,140.3,170.5,140.6z"/>
		<path class="st0" d="M130.9,134.3C130.9,134.3,130.9,134.3,130.9,134.3C130.9,134.3,130.9,134.3,130.9,134.3L130.9,134.3z"/>
		<path class="st0" d="M158.1,155c0,0.3-0.1,0.6-0.1,0.9h0.2c0-0.3,0.1-0.6,0.1-0.8c1.5-13.4,4.4-14.9,4.8-15.1
			c-0.8,0.4-3.4,2.7-4.8,15.2c0,0.2-0.1,0.5-0.1,0.7h0.2h0c0-0.2,0.1-0.5,0.1-0.7c1.5-12.9,4.2-14.8,4.8-15.1c0,0,0.1,0,0.1,0
			c0,0,0.1,0.1,0.1,0.1c0,0,0,0-0.1,0c0.1,0.1,0.1,0.1,0.2,0.1c0.1,0.1,0.2,0.2,0.3,0.2c-0.1,0.1-0.2,0.1-0.3,0.2
			c-1.1,1-2.9,4.3-4.3,14.7c0,0.1,0,0.2,0,0.4h0.2c0-0.1,0-0.2,0-0.3c1.3-10.1,3-13.3,4.1-14.4c0.2-0.2,0.4-0.3,0.5-0.4c0,0,0,0,0,0
			c-0.2,0.1-0.3,0.2-0.5,0.4c-1.1,1.2-2.8,4.7-4.1,14.4c0,0.1,0,0.1,0,0.2h0.2h0c0-0.1,0-0.1,0-0.2c1.3-9.4,2.8-12.8,3.8-14.1
			c0.3-0.4,0.5-0.6,0.7-0.7c0.1,0,0.1,0.1,0.2,0.1c0.1,0.1,0.2,0.1,0.4,0.2c0.3,0.1,0.7,0.3,1.1,0.3c0.2,0,0.3,0.1,0.5,0.1
			c0.1,0,0.3,0,0.4,0.1c0.7,0,1.4-0.1,2-0.2c0,0,0,0,0.1,0c0,0,0,0,0,0c0,0,0.1,0.1,0.1,0.1c0,0,0,0,0,0c0.3,0.2,0.6,0.5,0.8,0.9
			c0.1,0.2,0.3,0.4,0.4,0.7l-0.1,2.1l-0.4,10.7h1h2h0.2h0h0.1h0.1c-0.7-3.9-1.4-7.9-2.2-11.6c-0.2-0.7-0.4-1.3-0.7-1.8
			c-0.1-0.2-0.3-0.3-0.4-0.5c-0.3-0.3-0.6-0.6-1-0.8c0,0-0.1,0-0.1-0.1c0,0,0.1,0,0.1,0c-0.1,0-0.1-0.1-0.2-0.1
			c-0.7-0.5-1.6-0.7-2.2-0.8c-0.2,0-0.3,0-0.5-0.1c-0.3,0-0.6,0-0.7,0c0.1,0,0.1,0.1,0.2,0.1c0,0,0,0,0,0c-0.2-0.1-0.4-0.2-0.5-0.3
			c-0.1-0.1-0.2-0.2-0.3-0.4c0.2,0,0.7-0.1,1.4-0.2c0.2,0,0.3,0,0.5,0c0.5,0,1.1,0.1,1.7,0.2c0.4,0.1,0.8,0.2,1.2,0.5
			c0.1,0,0.1,0,0.2,0.1c0,0,0.1,0,0.1,0.1c-0.1,0-0.1,0-0.2-0.1c0.1,0.1,0.3,0.2,0.4,0.3c0.1,0.1,0.3,0.2,0.4,0.4l0,1.4
			c0.4,0.5,0.8,1.2,0.9,2c0.8,3.7,1.5,7.7,2.1,11.5h0.9h0.1h0h0.1h0c-1.2-7.9-2.4-12.3-2.4-12.4c-0.3-1.2-0.9-2.2-1.7-2.9
			c0.3-0.3,0.4-0.7,0.4-1c0-0.4-0.2-0.8-0.4-1.1c-0.1-0.1-0.3-0.3-0.4-0.4c-0.1-0.1-0.3-0.2-0.4-0.3c-0.1-0.1-0.2-0.1-0.3-0.2
			c0.1,0,0.2,0.1,0.2,0.1c-0.3-0.2-0.7-0.4-1.2-0.6c-0.2,0-0.3,0-0.5,0c-0.2,0-0.4,0-0.6-0.1c-0.2,0-0.5,0-0.7-0.1c0,0,0,0,0,0
			c-0.2,0-0.3,0-0.5,0c-0.1,0-0.3,0-0.5,0c-0.8,0.1-1.5,0.4-2,0.8c-0.1,0.1-0.2,0.1-0.2,0.2c-0.4,0.3-0.6,0.8-0.6,1.2
			c0,0.3,0.1,0.6,0.2,0.8C162.3,139.9,159.6,141.7,158.1,155z M166.2,140.5c0.1,0,0.2,0,0.2,0c0.1,0,0.3,0,0.5,0.1c0,0,0,0,0,0
			c-0.1,0-0.3,0-0.4-0.1C166.4,140.5,166.3,140.5,166.2,140.5z M164.2,139c0-0.2,0.1-0.4,0.3-0.6c0.1-0.1,0.3-0.2,0.5-0.3
			c-0.2,0.1-0.3,0.2-0.4,0.3C164.4,138.5,164.3,138.8,164.2,139C164.3,139,164.2,139,164.2,139z M164.5,139.4c0-0.1,0-0.1,0-0.2
			c0,0,0-0.1,0-0.1c0-0.2,0.1-0.4,0.3-0.6c0.3-0.3,0.7-0.4,1.2-0.5c0.2,0,0.3,0,0.5-0.1c0.1,0,0.3,0,0.4,0c0.2,0,0.5,0.1,0.7,0.1
			c0.3,0.1,0.6,0.2,0.9,0.3c0,0,0.1,0,0.1,0.1c0,0-0.1,0-0.1-0.1c0.4,0.3,0.6,0.6,0.6,0.9c0,0.1,0,0.3-0.1,0.4
			c-0.3-0.1-0.6-0.2-0.9-0.3c-0.5-0.2-1.1-0.2-1.6-0.2c-0.2,0-0.3,0-0.5,0c-0.6,0-1,0.1-1.3,0.1c0,0,0,0,0,0c0,0.1,0,0.1,0,0.2
			C164.6,139.4,164.6,139.4,164.5,139.4z M169.2,139.7c0.1-0.1,0.1-0.3,0.1-0.4c0,0,0,0,0,0.1C169.3,139.5,169.3,139.6,169.2,139.7
			C169.2,139.7,169.2,139.7,169.2,139.7z M169.5,137.9c0,0-0.1-0.1-0.2-0.1c0.2,0.2,0.4,0.3,0.6,0.5c0.2,0.3,0.4,0.6,0.4,1l0,0.1
			c0,0.3-0.1,0.6-0.4,0.9c0.1,0,0.1,0.1,0.2,0.1c0.1-0.1,0.1-0.2,0.1-0.2l0,0.1c0,0.1-0.1,0.1-0.1,0.2c0,0,0,0,0,0c0,0,0,0,0,0
			c-0.1,0-0.1-0.1-0.2-0.1c0,0-0.1,0-0.1-0.1c-0.1-0.1-0.2-0.1-0.3-0.2c0,0-0.1-0.1-0.1-0.1c0,0-0.1,0-0.1-0.1c0,0,0,0,0,0
			c0.1-0.1,0.1-0.3,0.1-0.5c0-0.4-0.3-0.8-0.7-1.2c0,0-0.1,0-0.1-0.1c-0.3-0.2-0.7-0.4-1.2-0.5c-0.3-0.1-0.5-0.1-0.8-0.1
			c-0.1,0-0.1,0-0.2,0c-0.2,0-0.3,0-0.5,0c-0.7,0.1-1.2,0.3-1.6,0.6c-0.3,0.2-0.4,0.5-0.4,0.8c0,0.5,0.3,0.9,0.9,1.2
			c0.1,0.1,0.2,0.1,0.3,0.2c0,0,0,0,0,0c0,0,0,0,0,0c0.1,0,0.1,0.1,0.2,0.1v0v0c0,0,0,0,0,0c0,0,0,0,0,0c0.2,0.1,0.3,0.1,0.5,0.2
			c0.2,0,0.3,0.1,0.5,0.1c0.1,0,0.3,0.1,0.4,0.1c0.3,0,0.5,0,0.7,0v0c0.3,0.1,0.5,0.2,0.8,0.3c0.1,0,0.2,0.1,0.3,0.1c0,0,0,0,0,0
			c-0.1,0-0.2-0.1-0.3-0.1c-0.5,0.1-1.1,0.2-1.7,0.2c-0.1,0-0.1,0-0.2,0c-0.2,0-0.3,0-0.5-0.1c-0.6-0.1-1.1-0.3-1.6-0.5
			c0,0,0,0,0.1,0.1c-0.1,0-0.2-0.1-0.2-0.1c-0.3-0.2-0.5-0.4-0.7-0.6c-0.2-0.3-0.3-0.6-0.3-0.9c0-0.3,0.1-0.6,0.3-0.9
			c0-0.1,0.1-0.1,0.2-0.2c0.5-0.5,1.3-0.8,2.3-0.9c0.2,0,0.3,0,0.5,0c0.1,0,0.3,0,0.4,0c0.1,0,0.3,0,0.4,0c0.8,0.1,1.5,0.3,2,0.6
			C169.4,137.8,169.5,137.8,169.5,137.9z M163.5,137.8C163.5,137.8,163.6,137.8,163.5,137.8c0.2-0.2,0.4-0.3,0.7-0.4
			C164,137.5,163.8,137.6,163.5,137.8C163.6,137.8,163.6,137.8,163.5,137.8c-0.3,0.3-0.5,0.7-0.5,1.1c0,0,0,0,0-0.1
			C163,138.5,163.2,138.1,163.5,137.8z"/>
		<polygon class="st0" points="165.2,140.3 165.2,140.3 165.2,140.3 		"/>
		<path class="st0" d="M128.9,119.2c0.3,0.2,0.4,0.5,0.4,0.8c0.1,0.7,0,1.5,1.2,1.8c0.4,0.1,1,0.1,1.7,0c0.1,0,0.3,0,0.4-0.1
			c1.1-0.2,1.6-0.6,1.7-1.1c0.4-1.9-3.6-5.2-3.6-5.2c-3.1,0.3-2.4,1.7-2.9,1.9C127.4,117.4,127.8,118.5,128.9,119.2z"/>
		<path class="st0" d="M157.6,134.6c2.4,0.3,4.4,0.6,6,0.7c0.9,0.1,1.7,0.2,2.4,0.3c0.2,0,0.3,0,0.5,0.1c0.1,0,0.2,0,0.3,0
			c1.3,0.1,2.4,0.2,3.2,0.3c0.2,0,0.3,0,0.4,0c2.2,0.1,2.3-0.1,2.3-0.3c0-0.1-0.9-0.4-2.3-0.6c-0.1,0-0.3,0-0.4-0.1
			c-1-0.2-2.2-0.3-3.5-0.5c-0.1,0-0.1,0-0.2,0c-0.1,0-0.2,0-0.3,0c-0.8-0.1-1.6-0.2-2.4-0.3c-1.3-0.1-2.6-0.3-3.9-0.4
			c-6.2-0.5-15.4-1.7-15.4-1.7C139.2,131.5,143,132.7,157.6,134.6z"/>
		<circle class="st1" cx="127" cy="237.3" r="22.7"/>
		<path class="st2" d="M110.4,158.8c0.5,0,0.9-0.4,0.9-0.9c0-0.5-0.4-0.9-0.9-0.9H1.2c-0.5,0-0.9,0.4-0.9,0.9c0,0.5,0.4,0.9,0.9,0.9
			H110.4z"/>
		<path class="st2" d="M140.4,158c0,0.5,0.4,0.9,0.9,0.9H249c0.5,0,0.9-0.4,0.9-0.9c0-0.5-0.4-0.9-0.9-0.9H141.3
			C140.8,157.1,140.4,157.5,140.4,158z"/>
		<path class="st2" d="M67.9,230.2c0-0.5-0.4-0.9-0.9-0.9H30.3c-0.5,0-0.9,0.4-0.9,0.9c0,0.5,0.4,0.9,0.9,0.9h36.7
			C67.6,231.1,67.9,230.7,67.9,230.2z"/>
		<path class="st2" d="M222.8,229.4h-39.3c-0.5,0-0.9,0.4-0.9,0.9c0,0.5,0.4,0.9,0.9,0.9h39.3c0.5,0,0.9-0.4,0.9-0.9
			C223.7,229.7,223.3,229.4,222.8,229.4z"/>
		<g>
			<path class="st2" d="M101.8,219.7l-5-30.1v30.1h-7.9v-51.4h11.9l5.4,33.1l5-33.1h11.9V213l-0.4,0.1c-2.6,0.5-5,1.4-7.3,2.7
				l-0.7,0.4v-26.5l-4.5,30H101.8z"/>
			<path class="st1" d="M122.7,168.8v43.9c-2.7,0.5-5.2,1.4-7.5,2.7V183l-5.5,36.1h-7.5l-5.9-35.6v35.6h-6.9v-50.4h11l5.8,35.8
				l5.4-35.8H122.7 M123.7,167.8h-1h-11h-0.9l-0.1,0.9l-4.4,29.5l-4.8-29.5l-0.1-0.8h-0.9h-11h-1v1v50.4v1h1h6.9h1v-1v-23.5
				l3.9,23.7l0.1,0.8h0.8h7.5h0.9l0.1-0.9l3.5-23v19v1.7l1.5-0.8c2.2-1.3,4.7-2.1,7.2-2.6l0.8-0.1v-0.8v-43.9V167.8L123.7,167.8z"/>
		</g>
		<g>
			<path class="st2" d="M136.2,214.6c-2.5-1-5.1-1.7-7.8-1.8l-0.5,0v-44.5h12.2c8.1,0,12.3,4.5,12.3,13v6.6c0,8.5-4.3,13-12.3,13
				h-3.2v14.2L136.2,214.6z M140.1,192.5c2,0,3.4-0.7,3.4-4.3v-7.6c0-3.5-1.4-4.3-3.4-4.3h-3.2v16.1H140.1z"/>
			<path class="st1" d="M140.1,168.8c7.9,0,11.8,4.4,11.8,12.5v6.6c0,8.1-3.9,12.5-11.8,12.5h-3.7v13.9c-2.5-1-5.1-1.7-7.9-1.9
				v-43.5H140.1 M136.4,193h3.7c2.5,0,3.9-1.2,3.9-4.8v-7.6c0-3.6-1.4-4.8-3.9-4.8h-3.7V193 M140.1,167.8h-11.7h-1v1v43.5v0.9
				l0.9,0.1c2.6,0.2,5.2,0.8,7.6,1.8l1.4,0.6v-1.5v-12.9h2.7c8.4,0,12.8-4.7,12.8-13.5v-6.6C152.9,172.4,148.5,167.8,140.1,167.8
				L140.1,167.8z M137.4,177h2.7c1.9,0,2.9,0.6,2.9,3.8v7.6c0,3.2-1,3.8-2.9,3.8h-2.7V177L137.4,177z"/>
		</g>
		<g>
			<path class="st2" d="M12.8,220.3c-7.9,0-12.3-4.7-12.3-13.2v-26.2c0-8.5,4.4-13.2,12.3-13.2s12.3,4.7,12.3,13.2v5.4h-8.5v-5.9
				c0-4-2.1-4.5-3.6-4.5s-3.6,0.5-3.6,4.5v27.2c0,3,1.1,4.4,3.6,4.4s3.6-1.4,3.6-4.4v-7.7h8.5v7.2C25.1,215.6,20.7,220.3,12.8,220.3
				z"/>
			<path class="st1" d="M12.8,168.2c7.8,0,11.8,4.6,11.8,12.7v4.9h-7.5v-5.4c0-3.6-1.6-5-4.1-5c-2.5,0-4.1,1.4-4.1,5v27.2
				c0,3.6,1.6,4.9,4.1,4.9c2.5,0,4.1-1.3,4.1-4.9v-7.2h7.5v6.7c0,8.1-4,12.7-11.8,12.7C5,219.8,1,215.1,1,207.1v-26.2
				C1,172.8,5,168.2,12.8,168.2 M12.8,167.2c-8.3,0-12.8,4.9-12.8,13.7v26.2c0,8.8,4.5,13.7,12.8,13.7c8.3,0,12.8-4.9,12.8-13.7
				v-6.7v-1h-1h-7.5h-1v1v7.2c0,3.4-1.5,3.9-3.1,3.9c-1.6,0-3.1-0.5-3.1-3.9v-27.2c0-3.5,1.6-4,3.1-4c1.5,0,3.1,0.5,3.1,4v5.4v1h1
				h7.5h1v-1v-4.9C25.6,172.1,21.1,167.2,12.8,167.2L12.8,167.2z"/>
		</g>
		<g>
			<polygon class="st2" points="45.9,219.7 45.9,198.1 37.9,198.1 37.9,219.7 28.9,219.7 28.9,168.3 37.9,168.3 37.9,189.9 
				45.9,189.9 45.9,168.3 54.9,168.3 54.9,219.7 			"/>
			<path class="st1" d="M54.4,168.8v50.4h-8.1v-21.6h-9v21.6h-7.9v-50.4h7.9v21.6h9v-21.6H54.4 M55.4,167.8h-1h-8.1h-1v1v20.6h-7
				v-20.6v-1h-1h-7.9h-1v1v50.4v1h1h7.9h1v-1v-20.6h7v20.6v1h1h8.1h1v-1v-50.4V167.8L55.4,167.8z"/>
		</g>
		<g>
			<path class="st2" d="M77.4,219.7l-1.4-9.1h-8.9l-1.4,9.1h-8.3l8.2-51.4h12.4l8.2,51.4H77.4z M74.8,202.7l-3.2-21.6l-3.2,21.6
				H74.8z"/>
			<path class="st1" d="M77.8,168.8l8.1,50.4h-8l-1.4-9.1h-9.7l-1.4,9.1h-7.3l8.1-50.4H77.8 M67.8,203.2h7.6l-3.8-25.5L67.8,203.2
				 M78.6,167.8h-0.9H66.2h-0.9l-0.1,0.8L57.1,219l-0.2,1.2h1.2h7.3h0.9l0.1-0.9l1.2-8.3h8l1.2,8.3l0.1,0.9h0.9h8H87l-0.2-1.2
				l-8.1-50.4L78.6,167.8L78.6,167.8z M68.9,202.2l2.7-17.7l2.7,17.7H68.9L68.9,202.2z"/>
		</g>
		<g>
			<rect x="155.5" y="168.3" class="st2" width="8.9" height="51.4"/>
			<path class="st1" d="M163.9,168.8v50.4H156v-50.4H163.9 M164.9,167.8h-1H156h-1v1v50.4v1h1h7.9h1v-1v-50.4V167.8L164.9,167.8z"/>
		</g>
		<g>
			<path class="st2" d="M181,220.3c-8,0-12.5-4.8-12.5-13.2v-26.2c0-8.4,4.6-13.2,12.5-13.2c8,0,12.5,4.8,12.5,13.2v26.2
				C193.5,215.5,189,220.3,181,220.3z M181,175.9c-1.5,0-3.6,0.5-3.6,4.5v27.2c0,4,2.1,4.5,3.6,4.5s3.6-0.5,3.6-4.5v-27.2
				C184.6,176.4,182.6,175.9,181,175.9z"/>
			<path class="st1" d="M181,168.2c7.8,0,12,4.6,12,12.7v26.2c0,8.1-4.2,12.7-12,12.7s-12-4.6-12-12.7v-26.2
				C169,172.8,173.2,168.2,181,168.2 M181,212.6c2.5,0,4.1-1.4,4.1-5v-27.2c0-3.6-1.6-5-4.1-5c-2.5,0-4.1,1.4-4.1,5v27.2
				C176.9,211.2,178.5,212.6,181,212.6 M181,167.2c-8.3,0-13,5-13,13.7v26.2c0,8.7,4.7,13.7,13,13.7s13-5,13-13.7v-26.2
				C194,172.2,189.3,167.2,181,167.2L181,167.2z M181,211.6c-1.5,0-3.1-0.5-3.1-4v-27.2c0-3.5,1.6-4,3.1-4s3.1,0.5,3.1,4v27.2
				C184.1,211.1,182.6,211.6,181,211.6L181,211.6z"/>
		</g>
		<g>
			<polygon class="st2" points="214.7,219.7 205.7,186.4 205.7,219.7 197.6,219.7 197.6,168.3 208.4,168.3 215.7,195.2 215.7,168.3 
				223.7,168.3 223.7,219.7 			"/>
			<path class="st1" d="M223.2,168.8v50.4h-8.1l-9.9-36.5v36.5h-7.1v-50.4h9.9l8.1,30.2v-30.2H223.2 M224.2,167.8h-1h-7.1h-1v1v22.6
				l-6.2-22.9l-0.2-0.7H208h-9.9h-1v1v50.4v1h1h7.1h1v-1v-29l7.9,29.2l0.2,0.7h0.8h8.1h1v-1v-50.4V167.8L224.2,167.8z"/>
		</g>
		<g>
			<path class="st2" d="M239.5,220.3c-7.9,0-12.3-4.7-12.3-13.2v-3.6h8.5v4.1c0,3,1.1,4.4,3.6,4.4c2.5,0,3.6-1.4,3.6-4.4
				c0-4.5-3.1-7.3-6.6-10.6c-4.1-3.8-8.9-8.1-8.9-16.1c0-8.5,4.3-13.2,12.2-13.2c7.8,0,12.2,4.7,12.2,13.2v2.1h-8.5v-2.6
				c0-4-1.8-4.5-3.5-4.5s-3.5,0.5-3.5,4.5c0,4.5,3.1,7.4,6.6,10.6c4.1,3.8,8.9,8.1,8.9,16.1C251.8,215.6,247.4,220.3,239.5,220.3z"
				/>
			<path class="st3" d="M239.6,168.2c7.7,0,11.7,4.6,11.7,12.7v1.6h-7.5v-2.1c0-3.6-1.4-5-4-5c-2.5,0-4,1.4-4,5
				c0,10.4,15.5,12.3,15.5,26.7c0,8.1-4,12.7-11.8,12.7c-7.8,0-11.8-4.6-11.8-12.7V204h7.5v3.6c0,3.6,1.6,4.9,4.1,4.9
				c2.5,0,4.1-1.3,4.1-4.9c0-10.4-15.5-12.3-15.5-26.7C227.9,172.8,231.9,168.2,239.6,168.2 M239.6,167.2c-8.2,0-12.7,4.9-12.7,13.7
				c0,8.2,4.8,12.6,9,16.5c3.5,3.2,6.5,5.9,6.5,10.2c0,3.4-1.5,3.9-3.1,3.9c-1.6,0-3.1-0.5-3.1-3.9V204v-1h-1h-7.5h-1v1v3.1
				c0,8.8,4.5,13.7,12.8,13.7c8.3,0,12.8-4.9,12.8-13.7c0-8.2-4.8-12.6-9-16.5c-3.5-3.2-6.5-5.9-6.5-10.2c0-3.5,1.4-4,3-4
				c1.5,0,3,0.5,3,4v2.1v1h1h7.5h1v-1v-1.6C252.2,172.1,247.7,167.2,239.6,167.2L239.6,167.2z"/>
		</g>
		<path class="st2" d="M80.2,225.5c-3.1,0-4.7,1.8-4.7,5v1.9h3v-2.1c0-1.4,0.6-2,1.6-2c1,0,1.6,0.5,1.6,2.3c0,5.8-6.2,6.8-6.2,12.6
			v2.5h9.1v-2.9h-6c0-0.1,0-0.3,0-0.4c0-3.3,6.3-5.6,6.3-11.9C84.9,227.3,83.3,225.5,80.2,225.5z"/>
		<path class="st2" d="M100,240.9v-10.4c0-3.2-1.7-5-4.8-5c-3.1,0-4.8,1.8-4.8,5v10.4c0,3.2,1.7,5,4.8,5
			C98.3,245.9,100,244.1,100,240.9z M96.9,241.1c0,1.4-0.6,2-1.6,2c-1,0-1.6-0.5-1.6-2v-10.8c0-1.4,0.6-2,1.6-2c1,0,1.6,0.5,1.6,2
			V241.1z"/>
		<path class="st2" d="M159.6,245.7v-20h-2.1c-0.5,1.3-1,2.5-3.5,2.5v2.2h2.4v15.3H159.6z"/>
		<polygon class="st2" points="170.2,245.7 174.9,228.4 174.9,225.7 165.4,225.7 165.4,228.5 171.7,228.5 167.1,245.7 		"/>
	</g>
	<path class="st2" d="M114.5,221.5c-0.7,0.6-1.4,1.2-2,1.9c0.5,0.3,1.6,0.9,2.9,2.1h0.4c0,0,0,0.1,0,0.3c0.1,0.1,0.3,0.3,0.5,0.5
		l0.4-0.4l0.6,0.3c0,0,0,0.5,0,1.4c0.9,1.1,1.6,2.3,2.2,3.5l1.5,1.4C119.6,226.7,115.5,222.5,114.5,221.5 M146.5,236.6
		c0-0.5,0-1-0.1-1.5c-4.7,0.4-9,0.7-13,0.9c0.2-3.1,1.7-5.8,3.8-8.5c1.7-2.2,3.5-3.3,4.3-3.8c-0.6-0.7-1.2-1.3-1.9-1.9
		c-1.5,1.5-6.5,7-6.9,14.2c-1.8,0.1-3.6,0.1-5.3,0.1c-0.1-11.3,0.8-18.3,0.9-19c-0.5,0-1-0.1-1.5-0.1c-0.4,0-0.8,0-1.3,0
		c0.1,0.9,0.8,7.9,0.8,19c-0.5,0-0.9,0-1.4,0c0.4,0.3,0.9,0.7,1.3,1h0.1v0c0.3,0.3,0.7,0.5,1.1,0.8c0-0.3,0-0.5,0-0.8
		c1.7,0,3.4,0,5.2,0c0,1.4,0.2,2.8,0.7,4.3c0.4,0.2,0.9,0.4,1.3,0.7c-0.8-1.8-1.2-3.4-1.3-5c4,0.1,8.3,0.2,13,0.5
		C146.5,237.3,146.5,237,146.5,236.6 M107.4,236.6c0,0.4,0,0.9,0,1.3c0.3,0,0.8-0.1,1.6-0.1c0.5-0.6,1-1.3,1.6-2.2
		c-1.7-0.1-2.8-0.3-3.2-0.3C107.5,235.7,107.4,236.1,107.4,236.6"/>
	<g>
		<path class="st3" d="M104.8,247.4h-7.4c-7.1,8.7-12.7,15.5-13.7,16.7c-0.1,0.1-0.1,0.1-0.1,0.2c0,0,0,0,0,0c0,0,0,0,0,0
			c0,0,0.1-0.1,0.1-0.2c1-1.2,6.6-8,13.7-16.7h-0.7H96l-13.2,16.1l-0.1,0.2l0,0.1c-0.1,0.1-0.2,0.3-0.2,0.4
			c-0.1,0.3-0.1,0.5-0.1,0.5c0,0,0.1,4.3,0.2,6.7c0.2,0.1,0.4,0.1,0.5,0.2l0,0c0.2,0.1,0.2,0.3,0.5,0.4l-0.2-5.4l0.2,5.3
			c0,0-0.1-5.4,0.7-6c0.9-0.6,14.4,3.8,15.3,4.1l-14.9-4.9l-0.5-0.2l-0.6-0.2c0.1,0,0.1-0.1,0.1-0.1c0,0,0,0,0,0l0.1,0l0.5,0.2
			l15.4,5.1c0-0.2,0.1-0.4,0.3-0.6l10.4-14C108.1,253.1,106.1,250.4,104.8,247.4z M83.5,264.6L83.5,264.6L83.5,264.6
			c-0.1,0-0.1-0.1,0-0.2l0,0C83.5,264.5,83.4,264.5,83.5,264.6C83.4,264.6,83.5,264.6,83.5,264.6z"/>
		<path class="st3" d="M117.7,274.1l5.8-12.8c-4.3-0.6-8.3-2.4-11.6-5c-0.1,0.1-0.2,0.3-0.3,0.4l0.3-0.4c0,0-0.1-0.1-0.1-0.1
			c-0.1,0.2-0.2,0.3-0.3,0.5c-1.6,2.2-3.1,4.2-4.4,5.9l4.8-6.4c-0.1-0.1-0.3-0.2-0.4-0.3c-0.1-0.1-0.3-0.2-0.4-0.3l-10.3,13.8
			c-0.2,0.2-0.2,0.4-0.3,0.6c-0.1,0.2,0,0.3,0,0.3c0,0,0.1,4.7,0.2,7c0.2,0.1,0.4,0.1,0.5,0.2c0.2,0.1,0.1,0.2,0.5,0.3l0-0.6
			c0-1.4,0.1-4.9,0.8-5.4c0.8-0.5,11.8,2.9,14.6,3.8c0.4,0.1,0.6,0.2,0.6,0.2c0,0,0,0,0,0l0,0l-0.6-0.2l-15.3-5.1
			c0.1,0,0.1-0.1,0.1-0.1l15.2,5l0.6,0.2c0-0.1,0.1-0.2,0.2-0.4l0.1-0.2l0.3-0.5C118,274.5,117.8,274.3,117.7,274.1z M101.3,270.5
			L101.3,270.5C101.3,270.4,101.4,270.5,101.3,270.5L101.3,270.5z M101.3,270.4L101.3,270.4L101.3,270.4
			C101.4,270.4,101.3,270.4,101.3,270.4z"/>
		<path class="st3" d="M95.4,247.4H76.7l-9.8,10.9c0,0-0.3,0.1-0.3,0.5l0,0l15.3,5.1c0-0.1,0.1-0.2,0.2-0.4l0.2-0.2l0.1-0.2
			L95.4,247.4z"/>
		<path class="st3" d="M137.1,281.6L137.1,281.6C137.1,281.6,137.1,281.6,137.1,281.6L137.1,281.6z"/>
		<path class="st3" d="M119.2,276.5c0.1,0,0.1-0.1,0.1-0.1c0,0,0-0.1,0-0.1l0.4,0.1l2.7,0.9c0,0,0,0,0,0c0,0,0,0,0,0l-2.7-0.9
			l-0.5-0.2l0.1-0.1l0.3-0.6c-0.2,0.3-0.3,0.5-0.4,0.5c0,0,0,0,0,0s0,0,0,0c0.4-0.6,4.4-6.5,9.8-14.5c-0.2,0-0.4,0-0.7,0
			c-0.2,0-0.4,0-0.6,0l-9.4,13.9l0,0c-0.1,0.2-0.2,0.3-0.2,0.4c-0.1,0.2-0.1,0.3-0.1,0.4c0,0,0,0,0,0c0,0,0,4.3-0.1,6.8
			c0.2,0.1,0.3,0.1,0.5,0.2c0.2,0.1,0.2,0.3,0.5,0.4c0-0.6,0-1.4,0-2.2c0.2-1.5,0.4-3.3,0.9-3.6c0.9-0.6,16.1,4.3,16.1,4.3
			l-15.9-5.3L119.2,276.5z M119.1,276.2C119.1,276.2,119.1,276.2,119.1,276.2C119.1,276.2,119.1,276.2,119.1,276.2L119.1,276.2z
			 M119,276.9c0-0.1,0-0.2,0-0.3c0-0.1,0-0.1,0-0.1c0,0,0,0,0,0l0,0.1L119,276.9z"/>
		<path class="st3" d="M67.2,265.4c0,0.2,0,0.3,0,0.3l-0.2-1.7c0,0.1,0,0.2,0,0.2C67.2,264.7,67.2,265.2,67.2,265.4z"/>
		<path class="st3" d="M66.6,259L66.6,259l0.5,5c-0.1-1.4-0.1-3.3,0.4-3.6c0.9-0.6,14.4,3.7,14.4,3.7L66.6,259L66.6,259z"/>
		<path class="st3" d="M160.2,292.8l-0.4,3.2c0,0-0.2,0.9-1,1c0,0,1,0,1.2-0.7c0,0,0-0.1,0-0.1l0,0c0-0.1,0-0.1,0-0.1l0-0.2
			c0.1-0.6,0.2-1.9,0.2-3.1c0.1-0.9,0.1-1.6,0.1-1.8c0-0.1,0-0.1,0-0.1c0,0,0,0,0,0l0,0L160.2,292.8z"/>
		<path class="st3" d="M187.4,232.7h-0.2h-11.9l-0.4,1.5l-2.7,9.6l-0.8,3l-0.2,0.6h-11.8h-1.1h0h-0.6h-0.6h-0.6h0h-7.5
			c-0.1,0.1-0.1,0.2-0.2,0.4c2,0.9,4.1,1.7,6.2,2.2c0,0,0,0,0,0c0.1,0,0.2,0.1,0.3,0.1l-0.2,0.6c0,0,0.1-0.1,0.1-0.2l-18.2,31.1
			c-0.1,0.2-0.2,0.4-0.2,0.5c0,0.1-0.1,0.3-0.1,0.3l-0.3,7c0.2,0.1,0.3,0.1,0.5,0.2c0.2,0.1,0.2,0.2,0.5,0.3l0-0.2
			c0-0.9,0.3-5.1,1.1-5.7c0.9-0.6,21.1,5.9,21.1,5.9l-21.7-7.2c0,0,0-0.1,0-0.1c0-0.1,0-0.1-0.1-0.1c0,0,0,0-0.1,0c0,0,0,0,0,0
			c-0.1,0-0.1,0-0.1,0.1l0-0.1v0c0,0,0,0,0,0c0,0,0-0.1,0.1-0.2l0,0l9.5-16.2l-0.5,0.8l9.6-16.4c8.5,1.7,16.5,0.6,16.5,0.6l-0.9,7.5
			l-1,8.2c-5.1,11-8.7,18.8-8.7,19.2c0,0,0,0,0,0c0.1,0.1,7.3-14.9,16-33.4c3.4-7.2,6.6-14,9.2-19.7H187.4z"/>
		<path class="st3" d="M178,155.8h0.5c0-0.6,0.1-1.1,0.1-1.7c0.6-8.3,1-14.4,1.2-16.4c0.3-0.1,0.7-0.3,0.9-0.7
			c-0.2,0.2-0.4,0.4-0.9,0.5c-0.2,0.1-0.3,0.1-0.5,0.1c-0.1,0-0.2,0-0.3,0c-0.1,0-0.1,0-0.2,0c-0.6,0-3.7-0.1-8.5-0.5
			c-0.1,0-0.3,0-0.4,0c-0.6,0-1.2-0.1-1.8-0.2c-0.3,0-0.6-0.1-0.9-0.1c0,0,0,0,0,0c-0.1,0-0.2,0-0.4,0c-0.1,0-0.2,0-0.3,0
			c-0.2,0-0.3,0-0.5,0c-0.1,0-0.2,0-0.3,0c-0.7-0.1-1.4-0.1-2.1-0.2c-2.1-0.2-4.3-0.5-6.7-0.8c-0.5-0.1-0.9-0.1-1.4-0.2
			c-5.6-0.7-11.9-1.7-18.5-2.9c-0.1,0-0.2,0-0.3-0.1c-2.6-0.5-5-1-7.2-1.5c0.1,0,0.2,0.1,0.2,0.2c0,0,0,0,0,0
			c0.1,0.1,0.2,0.1,0.3,0.2c1.1,0.7,1.8,1.7,1.8,2.6c0,0.3-0.1,0.6-0.2,0.8c0,0,0,0,0,0c0,0,0,0,0,0c2.9,2.5,5.2,8.9,7.5,16.6
			c0.4,1.4,0.8,2.8,1.3,4.3h0.2h15.1h2.3c0-0.3,0.1-0.6,0.1-0.9c1.5-13.2,4.3-15,4.9-15.3c-0.1-0.3-0.2-0.5-0.2-0.8
			c0-0.4,0.2-0.9,0.6-1.2c0.1-0.1,0.1-0.1,0.2-0.2c0.5-0.4,1.2-0.7,2-0.8c0.2,0,0.3,0,0.5,0c0.2,0,0.3,0,0.5,0c0,0,0,0,0,0
			c0.2,0,0.5,0,0.7,0.1c0.2,0,0.4,0,0.6,0.1c0.2,0,0.3,0,0.5,0c0.4,0.2,0.8,0.4,1.2,0.6c-0.1,0-0.2-0.1-0.2-0.1
			c0.1,0,0.2,0.1,0.3,0.2c0.2,0.1,0.3,0.2,0.4,0.3c0.2,0.1,0.3,0.3,0.4,0.4c0.3,0.3,0.4,0.7,0.4,1.1c0,0.4-0.2,0.7-0.4,1
			c0.8,0.7,1.4,1.7,1.7,2.9c0,0.1,1.2,4.5,2.4,12.4h0.1c-1.2-7.9-2.3-12.2-2.3-12.3c-0.3-1.2-0.9-2.2-1.7-2.9c0.3-0.3,0.4-0.7,0.4-1
			c0-0.5-0.2-0.9-0.6-1.3l0-1c4.5,0.4,7.5,0.5,8.7,0.6c0.1,0,0.2,0,0.3,0c-0.1,1-0.2,2.8-0.4,5.3C178.7,146.3,178.4,150.7,178,155.8
			z"/>
		<path class="st3" d="M116.9,155.8L116.9,155.8L116.9,155.8h2.2l-8.1-31.1c-1.3-0.7-2.4-1.4-3.3-2.2L116.9,155.8L116.9,155.8z"/>
		<path class="st3" d="M126,130.8C126,130.8,126,130.8,126,130.8c-0.2,0.1-0.4,0.2-0.6,0.3c-0.4,0.3-0.6,0.8-0.6,1.3
			c0,0,0,0.1,0,0.1c0-0.6,0.2-1.1,0.6-1.4C125.7,131,125.8,130.9,126,130.8C126,130.8,126,130.8,126,130.8z"/>
		<path class="st3" d="M130.5,133.8C130.5,133.8,130.5,133.8,130.5,133.8C130.5,133.8,130.5,133.8,130.5,133.8
			C130.5,133.8,130.5,133.8,130.5,133.8z"/>
		<path class="st3" d="M163.4,155.8h2.4h0.4h3.3h0.3l0.4-10.7l0.1-2.1c-0.1-0.3-0.2-0.5-0.4-0.7c-0.2-0.3-0.5-0.6-0.8-0.9
			c0,0,0,0,0,0c0,0-0.1-0.1-0.1-0.1c0,0,0,0,0,0c0,0,0,0-0.1,0c-0.6,0.2-1.3,0.3-2,0.2c-0.1,0-0.3,0-0.4-0.1c-0.2,0-0.3,0-0.5-0.1
			c-0.4-0.1-0.8-0.2-1.1-0.3c-0.1-0.1-0.3-0.1-0.4-0.2c-0.1,0-0.1-0.1-0.2-0.1c-0.2,0.1-0.4,0.3-0.7,0.7c-1,1.3-2.6,4.8-3.8,14.1
			c0,0.1,0,0.1,0,0.2h0.2H163.4z"/>
		<path class="st3" d="M159.2,155.8c0-0.1,0-0.2,0-0.4c1.4-10.4,3.1-13.6,4.3-14.7c0.1-0.1,0.2-0.2,0.3-0.2
			c-0.1-0.1-0.2-0.2-0.3-0.2c-0.1,0-0.1-0.1-0.2-0.1c0,0,0,0,0.1,0c0,0-0.1-0.1-0.1-0.1c0,0,0,0-0.1,0c-0.6,0.3-3.3,2.2-4.8,15.1
			c0,0.2-0.1,0.5-0.1,0.7h0.2H159.2z"/>
		<path class="st3" d="M130.4,135.7C130.4,135.7,130.5,135.6,130.4,135.7C130.5,135.6,130.5,135.6,130.4,135.7
			C130.5,135.6,130.4,135.7,130.4,135.7z"/>
		<path class="st3" d="M129.9,131.6c-0.1-0.1-0.2-0.1-0.3-0.2c-0.4-0.2-0.9-0.4-1.4-0.5c-0.9-0.2-1.6-0.1-2.2,0.2
			c-0.1,0.1-0.3,0.1-0.4,0.2c-0.4,0.3-0.6,0.8-0.6,1.3c0,0.8,0.6,1.7,1.5,2.4c0,0,0,0,0,0c0.2,0.1,0.4,0.2,0.6,0.4
			c-0.1,0-0.2-0.1-0.3-0.2c0.4,0.2,0.8,0.3,1.2,0.4c0.8,0.2,1.5,0.1,2-0.1c-0.1,0-0.1-0.1-0.2-0.1c-0.2-0.1-0.5-0.2-0.7-0.3v0
			c-0.3,0-0.7,0-1,0c-0.3-0.1-0.6-0.2-0.9-0.3c-0.2-0.1-0.4-0.2-0.5-0.3c-0.2-0.1-0.3-0.2-0.5-0.4c-0.5-0.4-0.8-0.9-0.8-1.4
			c0-0.4,0.1-0.7,0.4-0.9c0,0,0,0,0,0c0.4-0.4,1.1-0.5,1.9-0.3c0.5,0.1,0.9,0.3,1.3,0.6c0,0,0,0,0,0c0,0,0.1,0,0.1,0.1
			c0.7,0.4,1.3,1.1,1.3,1.8c0,0.2,0,0.3-0.1,0.4c0,0,0,0,0,0c0.2,0.1,0.4,0.2,0.6,0.4c0,0,0,0,0,0c0.1,0,0.1,0.1,0.2,0.1
			c0,0,0,0,0,0c0,0,0,0,0,0c0.1-0.2,0.2-0.5,0.1-0.7c0,0,0-0.1,0-0.1c0,0.3-0.1,0.6-0.2,0.8c-0.1,0-0.1-0.1-0.2-0.1
			c0.1-0.2,0.1-0.5,0.1-0.7C131.4,133,130.8,132.2,129.9,131.6z M130.9,134.3L130.9,134.3C130.9,134.3,130.9,134.3,130.9,134.3
			C130.9,134.3,130.9,134.3,130.9,134.3z"/>
		<path class="st3" d="M163.5,137.8c-0.3,0.3-0.5,0.7-0.5,1.1c0,0,0,0,0,0.1C163,138.5,163.2,138.1,163.5,137.8
			C163.6,137.8,163.6,137.8,163.5,137.8c0.2-0.2,0.5-0.3,0.7-0.4C164,137.5,163.8,137.6,163.5,137.8
			C163.6,137.8,163.5,137.8,163.5,137.8z"/>
		<path class="st3" d="M158.3,155c0,0.3-0.1,0.6-0.1,0.8h0c0-0.2,0.1-0.5,0.1-0.7c1.4-12.5,4-14.8,4.8-15.2
			C162.6,140.1,159.8,141.6,158.3,155z"/>
		<path class="st3" d="M130.4,134.1C130.5,134.1,130.5,134.1,130.4,134.1c0-0.1,0-0.1,0.1-0.2C130.5,133.9,130.5,134,130.4,134.1z"
			/>
		<path class="st3" d="M126.7,131.7c-0.1,0.1-0.3,0.1-0.4,0.2c-0.1,0.1-0.1,0.1-0.1,0.2c-0.1,0.2-0.2,0.4-0.2,0.6c0,0,0,0.1,0,0.1
			c0-0.2,0.1-0.4,0.2-0.6c0.1-0.1,0.1-0.2,0.2-0.3C126.5,131.8,126.6,131.7,126.7,131.7z"/>
		<path class="st3" d="M159.5,155.6c1.3-9.7,2.9-13.2,4.1-14.4c0.2-0.2,0.4-0.3,0.5-0.4c0,0,0,0,0,0c-0.1,0.1-0.3,0.2-0.5,0.4
			c-1,1.1-2.7,4.3-4.1,14.4c0,0.1,0,0.2,0,0.3h0C159.5,155.7,159.5,155.7,159.5,155.6z"/>
		<path class="st3" d="M127.4,155.8c-0.6-8-1.1-14.8-1.3-16.9c-0.2-1.6,0.1-2.8,0.7-3.5c0,0,0-0.1,0.1-0.1c0,0-0.1,0-0.1-0.1
			c-0.1,0-0.1-0.1-0.2-0.1c0,0,0,0,0,0c-0.1,0-0.1-0.1-0.2-0.1c0,0,0,0,0,0c-0.6,0.8-0.9,1.9-0.8,3.5l0.7,9.5
			c0.1,1.3,0.2,2.6,0.3,3.9c0.1,1.3,0.2,2.6,0.3,3.9h0.2c-0.1-0.7-0.1-1.4-0.2-2.2L127.4,155.8L127.4,155.8z"/>
		<path class="st3" d="M125.4,137.8c0-1.2,0.3-2.2,0.8-2.9c0,0,0,0,0,0C125.6,135.6,125.4,136.6,125.4,137.8z"/>
		<path class="st3" d="M127.6,155.8c-0.6-7.9-1.1-14.7-1.3-16.7c-0.1-1.5,0-2.5,0.5-3.3c0.1-0.1,0.1-0.3,0.2-0.4c0,0,0,0,0,0
			c0,0,0,0,0,0c0,0,0,0,0,0c-0.1,0.1-0.1,0.2-0.2,0.3c-0.5,0.7-0.7,1.8-0.5,3.2C126.4,140.6,127,147.6,127.6,155.8L127.6,155.8z"/>
		<path class="st3" d="M122.6,129.2l3.2,18.2l-0.7-9.1c-0.1-1.6,0.2-2.8,0.8-3.6c-0.8-0.6-1.3-1.5-1.3-2.3c0-0.6,0.2-1.1,0.7-1.5
			c0.2-0.2,0.4-0.3,0.6-0.4c0.3-0.1,0.6-0.2,1-0.2c-0.4-0.1-0.7-0.2-1.1-0.3C124.7,129.9,123.7,129.6,122.6,129.2z"/>
		<path class="st3" d="M166,139c0.2,0,0.3,0,0.5,0c0.5,0,1,0.1,1.6,0.2c0.3,0.1,0.6,0.2,0.9,0.3c0.1-0.1,0.1-0.3,0.1-0.4
			c0-0.3-0.2-0.6-0.6-0.9c0,0,0.1,0,0.1,0.1c0,0-0.1,0-0.1-0.1c-0.3-0.1-0.6-0.3-0.9-0.3c-0.2-0.1-0.5-0.1-0.7-0.1
			c-0.1,0-0.3,0-0.4,0c-0.2,0-0.3,0-0.5,0.1c-0.5,0.1-0.9,0.3-1.2,0.5c-0.2,0.2-0.3,0.4-0.3,0.6c0,0,0,0.1,0,0.1c0,0.1,0,0.1,0,0.2
			c0,0,0.1,0,0.2,0c0-0.1,0-0.1,0-0.2c0,0,0,0,0,0C165,139.1,165.4,139.1,166,139z"/>
		<path class="st3" d="M164.6,138.3c-0.2,0.2-0.3,0.4-0.3,0.6c0,0,0,0.1,0,0.1C164.3,138.8,164.4,138.5,164.6,138.3
			c0.2-0.1,0.3-0.2,0.5-0.3C164.9,138.1,164.7,138.2,164.6,138.3z"/>
		<path class="st3" d="M169.2,139.7c0.1-0.1,0.1-0.2,0.1-0.4c0,0,0,0,0-0.1C169.3,139.4,169.3,139.6,169.2,139.7
			C169.2,139.7,169.2,139.7,169.2,139.7z"/>
		<path class="st3" d="M171,144.2c0.8,3.7,1.5,7.7,2.2,11.6h0.2c-0.6-3.9-1.4-7.8-2.1-11.5c-0.2-0.9-0.5-1.5-0.9-2l0-1.4
			c-0.1-0.1-0.3-0.3-0.4-0.4c-0.1-0.1-0.3-0.2-0.4-0.3c0.1,0,0.1,0,0.2,0.1c0,0-0.1,0-0.1-0.1c-0.1,0-0.1,0-0.2-0.1
			c-0.4-0.2-0.8-0.4-1.2-0.5c-0.6-0.2-1.2-0.2-1.7-0.2c-0.2,0-0.3,0-0.5,0c-0.6,0-1.1,0.1-1.4,0.2c0.1,0.1,0.2,0.2,0.3,0.4
			c0.1,0.1,0.2,0.1,0.3,0.2h0c0.1,0,0.1,0.1,0.2,0.1c0,0,0,0,0,0c-0.1,0-0.2-0.1-0.2-0.1c0.1,0,0.4,0,0.7,0c0.1,0,0.3,0,0.5,0.1
			c0.7,0.1,1.5,0.3,2.2,0.8c0.1,0,0.1,0.1,0.2,0.1c0,0-0.1,0-0.1,0c0,0,0.1,0,0.1,0.1c0.3,0.2,0.7,0.5,1,0.8
			c0.1,0.1,0.3,0.3,0.4,0.5C170.5,142.9,170.8,143.5,171,144.2z"/>
		<path class="st3" d="M139.1,155.8h0.5h0.4c-0.2-0.7-0.4-1.4-0.6-2.1c-2.7-9.3-5.2-17-8.7-19.2c0,0,0.1,0,0.1,0.1
			c-0.1-0.1-0.2-0.1-0.3-0.2c-0.5-0.3-1.1-0.4-1.7-0.4c0,0-0.8-0.1-1.7,0.4c0,0,0,0,0,0c0.2,0.1,0.4,0.2,0.6,0.3
			c-0.1-0.1-0.3-0.1-0.4-0.2c0,0,0,0,0,0c0.2,0.1,0.5,0.2,0.8,0.3c0.3,0,0.5,0,0.5,0c0.2,0,0.3,0,0.5,0.1c0,0,0,0,0,0
			c0.4,0.1,0.8,0.3,1.2,0.5c0,0,0,0,0,0c0,0,0.1,0,0.1,0c3.3,2.1,6,10.7,8.6,20.5H139.1z"/>
		<path class="st3" d="M126.8,134c0.1,0.1,0.1,0.1,0.2,0.2c0,0,0,0,0,0c0,0,0,0,0,0c0.1,0,0.2-0.1,0.2-0.1c-0.1,0-0.2,0.1-0.2,0.1
			C127,134.1,126.9,134,126.8,134c0.9-0.5,1.8-0.4,1.8-0.4c0.6,0,1.1,0.1,1.6,0.4c0-0.1,0-0.2,0-0.3c0-0.5-0.4-1.1-1-1.5
			c0,0,0,0,0,0c-0.3-0.2-0.6-0.3-1-0.4c-0.7-0.1-1.3,0-1.7,0.3c-0.2,0.1-0.2,0.3-0.3,0.5c0,0.1-0.1,0.2-0.1,0.3
			c0,0.2,0.1,0.5,0.2,0.7C126.5,133.7,126.7,133.9,126.8,134z"/>
		<path class="st3" d="M128,155.8h2.2h8.5c-2.4-9-4.9-17.1-7.8-19.9c0,0,0,0,0,0c0,0-0.1-0.1-0.1-0.1c0,0,0,0,0,0
			c-0.6,0.3-1.4,0.4-2.2,0.2c-0.4-0.1-0.8-0.2-1.2-0.4c0,0,0,0,0,0c-0.1,0.1-0.3,0.3-0.4,0.5c-0.3,0.5-0.4,1.1-0.4,1.9
			c0,0.3,0,0.7,0,1.1c0.2,1.6,0.7,8.5,1.3,16.7H128z"/>
		<path class="st3" d="M166.9,140.6C166.9,140.6,166.9,140.6,166.9,140.6c-0.1,0-0.3,0-0.4-0.1c-0.1,0-0.2,0-0.2,0
			c0.1,0,0.2,0,0.2,0C166.6,140.5,166.7,140.6,166.9,140.6z"/>
		<path class="st3" d="M169.3,137.8c-0.6-0.3-1.3-0.6-2-0.6c-0.1,0-0.3,0-0.4,0c-0.1,0-0.3,0-0.4,0c-0.2,0-0.3,0-0.5,0
			c-0.9,0.1-1.8,0.4-2.3,0.9c-0.1,0.1-0.1,0.1-0.2,0.2c-0.2,0.3-0.3,0.6-0.3,0.9c0,0.3,0.1,0.6,0.3,0.9c0.2,0.2,0.4,0.4,0.7,0.6
			c0.1,0,0.1,0.1,0.2,0.1c0,0,0,0-0.1-0.1c0.5,0.2,1,0.4,1.6,0.5c0.2,0,0.3,0,0.5,0.1c0.1,0,0.1,0,0.2,0c0.6,0,1.2,0,1.7-0.2
			c0.1,0,0.2,0.1,0.3,0.1c0,0,0,0,0,0c-0.1-0.1-0.2-0.1-0.3-0.1c-0.3-0.1-0.5-0.2-0.8-0.3v0c-0.2,0-0.5,0-0.7,0
			c-0.1,0-0.3,0-0.4-0.1c-0.2,0-0.3,0-0.5-0.1c-0.2-0.1-0.4-0.1-0.5-0.2c0,0,0,0,0,0c0,0,0,0,0,0v0v0c-0.1,0-0.1-0.1-0.2-0.1
			c0,0,0,0,0,0c0,0,0,0,0,0c-0.1-0.1-0.2-0.1-0.3-0.2c-0.5-0.3-0.9-0.8-0.9-1.2c0-0.3,0.1-0.6,0.4-0.8c0.4-0.3,0.9-0.6,1.6-0.6
			c0.2,0,0.3,0,0.5,0c0.1,0,0.1,0,0.2,0c0.3,0,0.5,0.1,0.8,0.1c0.5,0.1,0.9,0.3,1.2,0.5c0,0,0.1,0,0.1,0.1c0.5,0.3,0.7,0.7,0.7,1.2
			c0,0.2,0,0.3-0.1,0.5c0,0,0,0,0,0c0,0,0.1,0,0.1,0.1c0,0,0.1,0,0.1,0.1c0.1,0.1,0.2,0.1,0.3,0.2c0,0,0.1,0,0.1,0.1
			c0.1,0,0.1,0.1,0.2,0.1c0,0,0,0,0,0c0,0,0,0,0,0c0-0.1,0.1-0.1,0.1-0.2l0-0.1c0,0.1-0.1,0.2-0.1,0.2c-0.1,0-0.1-0.1-0.2-0.1
			c0.2-0.3,0.3-0.6,0.4-0.9l0-0.1c0-0.3-0.1-0.7-0.4-1C169.8,138.1,169.6,137.9,169.3,137.8c0.1,0,0.1,0.1,0.2,0.1
			C169.5,137.8,169.4,137.8,169.3,137.8z M165.2,140.3C165.2,140.3,165.2,140.3,165.2,140.3L165.2,140.3
			C165.2,140.3,165.2,140.3,165.2,140.3z"/>
		<path class="st3" d="M116.2,110c0.8,0.5,1.6,0.9,2.4,1.2C117.9,110.9,117.1,110.5,116.2,110C116.3,110,116.3,110,116.2,110z"/>
		<path class="st3" d="M156.8,19.3c-0.2-0.2-0.4-0.4-0.5-0.6c0.4,0.5,0.8,0.9,1.2,1.4C157.2,19.8,157,19.6,156.8,19.3z"/>
		<path class="st3" d="M73.5,24.1c1.1,0.9,3.1,2.6,5.8,4.8c0.1,0.1,0.3,0.2,0.4,0.3c-1.2,1.5-4.2,5.6-6.9,12.2
			c-1.1,2.6-2.1,5.6-2.9,8.9c-1.2,4.5-2,9.6-2.2,15.4c-0.2,8.4,2,16.6,5.9,23.9c0.1,0.2,0.3,0.3,0.4,0.5c2.5,4.4,5.7,8.4,9.5,12.1
			l0,0c0,0,0.1,0.1,0.1,0.1c0.8,0.5,1.6,1.1,2.5,1.6c0.3,0.2,1,0.6,1,0.6c5.3,3.2,11.7,5.8,18.2,7.2c-0.6,0.6-1.4,1.9-1.3,3.9
			c0,0.3,0.1,0.7,0.1,1.1c0,0,0,0,0,0c0,0,0,0,0,0c0,0.1,0,0.1,0.1,0.2c0.2,0.7,0.8,2.3,3.3,4.4c0.9,0.7,2,1.5,3.4,2.4
			c2.7,1.6,6.5,3.3,11.8,4.9c1,0.3,2.1,0.6,3.3,0.9c3.5,0.9,7.7,1.8,12.5,2.7c10.8,1.9,19.1,3.1,25.4,3.8c0.8,0.1,1.7,0.2,2.4,0.3
			c0.2,0,0.3,0,0.5,0.1c0.2,0,0.4,0,0.5,0.1c1,0.1,2,0.2,2.9,0.3c0.1,0,0.3,0,0.4,0c4.3,0.4,7.1,0.5,8.7,0.4c0.1,0,0.2,0,0.3,0
			c0.2,0,0.4,0,0.5,0c0.4,0,0.7-0.1,0.9-0.2c0.1-0.2,0.1-0.4,0.1-0.6c0-0.6-0.3-1.2-0.6-1.5c-0.1,0-0.5,0-1.1-0.1
			c-0.9-0.1-2.4-0.2-4.4-0.3c-0.3,0-0.6,0-0.9-0.1c-1-0.1-2.2-0.2-3.5-0.3c-0.1,0-0.3,0-0.4,0c-1.1-0.1-2.2-0.2-3.5-0.3
			c-0.2,0-0.3,0-0.5-0.1c0,0,0,0,0,0c-0.8-0.1-1.6-0.2-2.4-0.3c-11.3-1.2-26.3-3.2-38.3-6.3c-1.1-0.3-2.2-0.6-3.3-0.9
			c-4.9-1.4-9-3-11.9-4.8c0,0-0.1,0-0.1-0.1c-2.3-1.5-3.9-3.1-4.3-4.8c0,0,0-0.1,0-0.1c0-0.2-0.1-0.3-0.1-0.5c0,0,6.7,2.1,14.2,4.6
			c7.5,2.5,15.3,2.9,15.7,1.7c0.4-1.3,6.7,0.4,7.7,0.8c1,0.4,31.9,2.8,26.1-2.5c-3.6-0.5-7.8-1.2-12.3-2c-4.6,1-13.3,2.4-21.9,2
			c0.2-0.2,0.3-0.5,0.3-0.7c0.3-1.6-1.6-3.5-4.6-5.1c-0.3-0.2-0.6-0.3-1-0.4c-2.1,1-4.2,1.3-6.2,1.3c-0.5,0.3-1,0.5-1.3,0.9
			c-0.1,0.1-0.2,0.2-0.2,0.3c-0.4,0.5-0.1,0.5,0,1.3c0.2,0.9,0,0.9,0.7,1.6c0.5,0.5,1.3,1.2,1.8,1.9c-0.2,0-0.4-0.1-0.5-0.1
			c-2.2-0.6-4.2-1.4-5.8-2.3c0,0,0-0.1,0-0.2c0.1-0.1,0.2-0.1,0.3-0.2c-0.6-0.8-1.5-1.3-2.1-2c0.2,0,0.3-0.1,0.5-0.2
			c0.1-0.4-0.2-0.8-0.5-1c0.4-0.1,3.9,0.2,3.9-0.5c-2.1-0.5-3.6-1.3-3.6-1.3l-0.6-0.4l2.3,0.2c0.6,0.2,1.1,0.4,1.7,0.5
			c-0.1-0.2-0.1-0.4-0.3-0.6l1.4,0.1c0.1,0.1,0.3,0.1,0.4,0.1c0.8,0.3,2,0.4,2.6,1c3.3,0.2,5.6-0.5,5.7-0.5c-1.2-0.5-2.6-1-4.1-1.4
			c-0.9-0.2-1.7-0.4-2.6-0.5c1.3-0.2,2.6-0.4,3.9-0.7c11.5-2.4,21.7-8.3,29.4-16.5c0.2-0.2,0.5-0.5,0.7-0.8c0.1-0.1,0.3-0.3,0.4-0.4
			c0.2-0.2,0.5-0.5,0.7-0.8c0,0,0,0,0,0c0,0,0.1-0.1,0.1-0.1c-0.6-0.5-1.1-0.9-1.7-1.4c0,0-0.1,0.1-0.1,0.1
			c-4.5-3.8-9.1-7.7-13.7-11.6c0,0-0.1-0.1-0.1-0.1c-5.5-4.6-10.9-9.2-16.2-13.7c-0.1-0.1-0.2-0.2-0.3-0.3c-1-0.8-1.9-1.6-2.9-2.4
			c-0.2-0.2-0.4-0.3-0.6-0.5c-0.7-0.6-1.5-1.2-2.2-1.8c-0.3-0.3-0.6-0.5-0.9-0.7c-0.8-0.7-1.6-1.3-2.4-2c-0.4-0.3-0.7-0.6-1.1-0.9
			c-0.5-0.4-0.9-0.8-1.3-1.1c-0.6-0.5-1.2-1-1.8-1.5c-0.6-0.5-1.2-1-1.7-1.5c-0.3-0.2-0.6-0.5-0.9-0.7c-0.6-0.5-1.3-1.1-1.9-1.6
			c-0.4-0.4-0.8-0.7-1.2-1c-0.6-0.5-1.1-0.9-1.7-1.4c-0.3-0.2-0.6-0.4-0.8-0.7c-0.7-0.6-1.4-1.2-2.1-1.8c-0.3-0.2-0.5-0.4-0.8-0.7
			c-0.6-0.5-1.2-1-1.8-1.5c-0.2-0.1-0.3-0.3-0.5-0.4c-0.7-0.6-1.5-1.2-2.2-1.8c-0.2-0.2-0.4-0.3-0.6-0.5c-0.7-0.6-1.5-1.2-2.2-1.8
			c0.4-0.4,0.7-0.8,1.1-1.1c0.8,0.7,1.7,1.4,2.5,2.1c0.2,0.1,0.3,0.3,0.5,0.4c0.9,0.7,1.7,1.5,2.6,2.2c0.1,0.1,0.2,0.2,0.4,0.3
			c0.9,0.8,1.8,1.5,2.8,2.3c0.2,0.1,0.3,0.3,0.5,0.4c0.9,0.8,1.8,1.5,2.8,2.3c0.2,0.2,0.4,0.3,0.6,0.5c0.9,0.8,1.9,1.5,2.8,2.3
			c0.2,0.1,0.3,0.3,0.5,0.4c1,0.8,1.9,1.6,2.9,2.4c0.1,0.1,0.2,0.1,0.2,0.2c1,0.8,2,1.7,3,2.5c0.3,0.2,0.5,0.4,0.8,0.6
			c0.9,0.8,1.8,1.5,2.7,2.3c0.3,0.2,0.6,0.5,0.9,0.8c0.9,0.8,1.9,1.6,2.9,2.4c0.3,0.2,0.5,0.4,0.8,0.7c1,0.9,2.1,1.7,3.1,2.6
			c0.2,0.1,0.3,0.3,0.4,0.4c1.1,1,2.3,1.9,3.4,2.9l0,0c6.2,5.2,12.6,10.6,18.9,15.9c7.9-9.7,12.8-22,12.8-35c0-0.1,0-0.1,0-0.2
			c-3.7-4.2-9-8.8-16.5-12.9c-8.8-4.8-18.6-7.7-28-7.9c9.9-0.2,20.4,2.8,29.8,7.9c7.2,4,12.2,8.4,15.6,12.5c0,0,0,0,0,0
			c0.2,0.3,0.5,0.6,0.7,0.9c0.1,0.1,0.1,0.2,0.2,0.3c0.2,0.2,0.4,0.5,0.5,0.7c0.1,0.2,0.2,0.3,0.3,0.5c0.1,0.2,0.2,0.3,0.4,0.5
			c0.2,0.2,0.3,0.5,0.5,0.7c0.1,0.1,0.1,0.2,0.2,0.3c0.7,1,1.2,2,1.7,2.9c0,0.5,0,0.9,0,1.4c-0.5,12.3-5,23.6-12.2,32.6
			c0.6,0.5,1.1,0.9,1.6,1.4c6.8-8.6,11.2-19.2,12-30.9c0-0.5,0.1-1,0.1-1.5v-0.1c0-0.7,0.1-1.5,0.1-2.2c0-0.3,0-0.6,0-0.9
			c0,0,0,0,0,0.1c0,0,0,0,0-0.1c-0.4-0.8-0.8-1.8-1.5-3c-0.1-0.3-0.3-0.5-0.5-0.8c-0.2-0.3-0.3-0.5-0.5-0.8c0,0,0,0,0,0
			c-1.1-1.7-2.6-3.5-4.5-5.5c0,0-0.1-0.1-0.2-0.2c-3.3-3.5-7.7-7.1-13.7-10.4c-9.7-5.3-20.7-8.3-31-7.9c-0.1,0-0.2,0-0.4,0
			c-9.8,0.3-19,3.6-26,10.8c-0.2-0.2-0.4-0.3-0.5-0.5c-0.1-0.1-0.3-0.2-0.4-0.3c0.1-0.1,0.1-0.1,0.1-0.1c-4-3.4-7.5-6.3-10.3-8.6
			c0.3-0.3,0.7-0.7,1.1-1.2c2.9,2.4,6.4,5.4,10.4,8.7c1.3-1.1,2.5-2.1,3.9-2.9c14.6-11.4,36.3-9.1,54,0.6c0.7,0.4,1.3,0.7,1.9,1.1
			c0.2,0.1,0.4,0.2,0.6,0.4c0.4,0.2,0.8,0.5,1.3,0.8c0.2,0.1,0.4,0.3,0.6,0.4c0.4,0.2,0.8,0.5,1.1,0.7c0.2,0.1,0.4,0.3,0.6,0.4
			c0.4,0.3,0.7,0.5,1.1,0.8c0.2,0.1,0.3,0.2,0.5,0.4c0.4,0.3,0.7,0.5,1,0.8c0.1,0.1,0.3,0.2,0.4,0.3c0.4,0.3,0.7,0.6,1,0.9
			c0.1,0.1,0.2,0.2,0.3,0.2c0.4,0.3,0.7,0.6,1.1,1c0.1,0.1,0.1,0.1,0.2,0.2c0.4,0.4,0.8,0.7,1.1,1.1c0,0,0,0,0,0
			c-2.1-14.6-10.7-26.4-22.7-33.4c4.1,1.1,7.7,2.7,10.8,4.8c-2-1.6-3.7-3-5.9-4.3c-3-1.4-6.4-2.4-10-3.1c-0.2-0.1-0.3-0.2-0.5-0.2
			c-1.4-0.2-2.8-0.4-4.3-0.5c-0.2,0-0.3,0-0.5,0c-0.6,0-1.1-0.1-1.7-0.1c-0.2,0-0.4,0-0.6,0c-0.7,0-1.4,0-2.1,0
			c-1.4,0-2.8,0-4.3,0.1c-4.6,0.2-9.2,1-13.7,2.3C94.5,13.4,83.2,25.2,80.7,28c-0.2-0.1-0.3-0.3-0.5-0.4c-0.2-0.2-0.4-0.3-0.6-0.5
			c0.1-0.1,0.1-0.1,0.1-0.1c-0.2-0.2-0.5-0.4-0.7-0.6c-0.8-0.7-1.5-1.3-2.1-1.8c-0.1-0.1-0.2-0.1-0.2-0.2c-0.1-0.1-0.3-0.2-0.4-0.3
			c-0.1,0-0.1-0.1-0.2-0.1c-0.7-0.6-1.3-1-1.6-1.4c0,0-0.1,0.1-0.1,0.1c0,0,0,0,0,0c-0.2,0.2-0.4,0.5-0.6,0.7l-0.1,0.2L73.5,24.1
			C73.5,24,73.5,24.1,73.5,24.1C73.6,24.1,73.5,24.1,73.5,24.1z M144.3,132c0,0,9.2,1.3,15.4,1.7c1.3,0.1,2.6,0.2,3.9,0.4
			c0.8,0.1,1.6,0.2,2.4,0.3c0.1,0,0.2,0,0.3,0c0.1,0,0.1,0,0.2,0c1.3,0.2,2.5,0.3,3.5,0.5c0.1,0,0.3,0,0.4,0.1
			c1.4,0.2,2.3,0.5,2.3,0.6c0,0.2-0.2,0.4-2.3,0.3c-0.1,0-0.3,0-0.4,0c-0.8,0-1.8-0.1-3.2-0.3c-0.1,0-0.2,0-0.3,0
			c-0.2,0-0.3,0-0.5-0.1c-0.7-0.1-1.5-0.2-2.4-0.3c-1.7-0.2-3.7-0.4-6-0.7C143,132.7,139.2,131.5,144.3,132z M134.4,120.6
			c-0.1,0.5-0.6,1-1.7,1.1c-0.2,0-0.3,0-0.4,0.1c-0.8,0.1-1.3,0.1-1.7,0c-1.2-0.2-1.1-1.1-1.2-1.8c0-0.3-0.1-0.6-0.4-0.8
			c-1.2-0.7-1.5-1.8-1-2c0.5-0.1-0.2-1.6,2.9-1.9C130.8,115.3,134.8,118.7,134.4,120.6z M92.5,82.4c0.2,0.5,0.5,1.1,0.7,1.6
			c0,0,0,0,0,0.1c0.2,0.5,0.5,1.1,0.8,1.6c0.1,0.2,0.1,0.3,0.2,0.5c0.2,0.4,0.4,0.8,0.6,1.2c0.1,0.1,0.1,0.3,0.2,0.4
			c0.3,0.5,0.5,1,0.8,1.5c0.1,0.1,0.1,0.2,0.2,0.3c0.2,0.4,0.4,0.7,0.6,1.1c0.1,0.1,0.2,0.3,0.3,0.4c0.3,0.4,0.5,0.8,0.8,1.2
			c0,0,0.1,0.1,0.1,0.1c0.3,0.4,0.6,0.9,0.8,1.3c0.1,0.1,0.2,0.3,0.3,0.4c0.2,0.3,0.4,0.6,0.7,0.9c0.1,0.1,0.2,0.2,0.2,0.3
			c0.3,0.4,0.6,0.8,0.9,1.1c0.1,0.1,0.1,0.2,0.2,0.3c0.2,0.3,0.4,0.6,0.7,0.8c0.1,0.1,0.2,0.2,0.3,0.4c0.2,0.3,0.5,0.6,0.7,0.8
			c0.1,0.1,0.1,0.2,0.2,0.2c0.3,0.3,0.6,0.7,0.9,1c0.1,0.1,0.2,0.2,0.3,0.3c0.2,0.2,0.4,0.4,0.6,0.6c0.1,0.1,0.2,0.2,0.3,0.3
			c0.3,0.3,0.6,0.6,0.8,0.8c0.1,0.1,0.2,0.2,0.3,0.3c0.2,0.2,0.4,0.4,0.6,0.6c0.1,0.1,0.2,0.2,0.4,0.3c0.2,0.2,0.4,0.3,0.6,0.5
			c0.1,0.1,0.3,0.2,0.4,0.4c0.2,0.2,0.5,0.4,0.7,0.6c0.1,0.1,0.3,0.2,0.4,0.3c0.2,0.1,0.3,0.3,0.5,0.4c0.1,0.1,0.3,0.2,0.4,0.3
			c0.2,0.2,0.5,0.4,0.7,0.5c0,0,0,0,0,0c0.7,0,1.4-0.1,2.1-0.1c14.1-1,26.9-7.6,36.3-17.4c-20.1-17-41.3-34.6-56.1-47
			c0.3-0.3,0.5-0.6,0.7-0.9c14.8,12.4,35.7,29.9,56.1,47.1c0,0,0,0,0,0c2,1.7,3.9,3.3,5.9,5c-0.2,0.2-0.5,0.5-0.7,0.7
			c-8.4,8.9-19.6,15-32.2,16.8c-1.4,0.2-2.8,0.4-4.2,0.5c0.2,0.1,0.4,0.2,0.6,0.3c-1.2,0.3-2.3,0.5-3.2,0.7
			c-0.3-0.1-0.5-0.3-0.8-0.4c-0.4-0.2-0.7-0.4-1.1-0.6c-0.1-0.1-0.2-0.1-0.3-0.2c-0.4-0.2-0.8-0.5-1.1-0.7c-1.3-0.9-2.7-1.9-4.2-3.2
			c-0.2-0.2-0.4-0.3-0.6-0.5c0,0,0,0,0,0c0,0,0,0,0,0c-0.2-0.2-0.5-0.4-0.7-0.6c-0.1-0.1-0.2-0.2-0.3-0.3c-0.4-0.3-0.7-0.7-1.1-1
			c-0.2-0.2-0.3-0.3-0.5-0.5c-0.3-0.3-0.5-0.5-0.8-0.8c-0.2-0.2-0.5-0.5-0.7-0.7c-0.2-0.2-0.3-0.4-0.5-0.5c-0.3-0.4-0.7-0.7-1-1.1
			c-0.1-0.2-0.3-0.3-0.4-0.5c-0.4-0.4-0.7-0.9-1.1-1.3c-0.1-0.1-0.2-0.2-0.2-0.3c-0.3-0.4-0.7-0.9-1-1.3c-0.1-0.1-0.2-0.2-0.2-0.3
			c-0.4-0.5-0.8-1.1-1.2-1.6c-0.1-0.1-0.2-0.2-0.3-0.4c-0.4-0.6-0.8-1.1-1.2-1.7c-0.1-0.1-0.1-0.2-0.2-0.3c-0.4-0.6-0.8-1.3-1.2-1.9
			c-2.5-4.4-4.8-9.6-6.6-15.7c-3.8-12.6-2-21.7,0.6-27.5c-2.1,5.8-3.2,14.3,0.2,25.7c0.2,0.7,0.4,1.3,0.6,2c0.1,0.2,0.1,0.4,0.2,0.5
			c0.2,0.5,0.3,1,0.5,1.5c0,0.1,0.1,0.3,0.2,0.4c0.2,0.6,0.4,1.2,0.7,1.8c0.1,0.1,0.1,0.3,0.2,0.4c0.2,0.5,0.4,0.9,0.6,1.4
			C92.4,82,92.5,82.2,92.5,82.4z M80.3,94.9c0.1,0.1,0.1,0.1,0.2,0.2c0.4,0.6,0.9,1.1,1.3,1.7c0.1,0.1,0.1,0.1,0.2,0.2
			c0.5,0.6,0.9,1.1,1.4,1.7c6.1,4.2,13.4,6.8,21.3,7.6c-6.9-5.9-14.9-15.5-19.3-30.5c-6.3-21.6,2.7-33.2,5.2-35.9
			c-3.9-3.3-7.3-6.1-10.1-8.5c0.3-0.4,0.5-0.7,0.7-0.9c2.9,2.4,6.6,5.5,10.7,9c0.2,0.1,0.3,0.2,0.5,0.4c-1,1.1-2.9,3.5-4.6,7.3
			c-0.9,2.1-1.7,4.6-2.2,7.6C84.5,60,84.4,67,87,75.6c4,13.6,10.4,22.6,16.5,28.5c1.1,1.1,2.3,2.1,3.4,3.1c0.1,0.1,0.2,0.2,0.4,0.3
			c0.5,0.4,1,0.8,1.5,1.2c0,0,0.1,0.1,0.1,0.1c0.5,0.4,1,0.8,1.5,1.1c0.1,0.1,0.2,0.1,0.2,0.2c0.1,0.1,0.1,0.1,0.2,0.2
			c0,0,0.1,0.1,0.1,0.1c0.1,0,0.1,0.1,0.2,0.1c0.1,0.1,0.3,0.2,0.4,0.3c0.3,0.2,0.7,0.4,1,0.7c-0.3,0-0.7-0.1-1-0.1
			c-1.5-0.1-2.9-0.2-4.3-0.4c-5.6-0.8-11-2.5-15.9-4.9c-0.4-0.2-0.7-0.4-1.1-0.5c-0.3-0.1-0.5-0.3-0.7-0.4c-0.5-0.3-1-0.5-1.4-0.8
			c-1.4-0.8-2.5-1.5-3.8-2.4l-0.2-0.2c0,0,0,0,0,0c-0.6-0.6-1.1-1.2-1.6-1.8c0,0,0,0,0.1,0c0,0,0,0,0,0c-0.2-0.1-0.4-0.3-0.6-0.4
			c-3.1-3.7-5.6-7.8-7.8-12.4c-0.3-0.6-0.6-1.2-0.8-1.8c-2.6-6.2-4-12.9-3.8-19.6c0.2-9.6,2.4-17.4,4.9-23.3
			c-2.1,5.6-3.9,12.9-4.2,21.5c0,0.7,0,1.4,0,2.2c0,0.1,0,0.2,0,0.4c0,0.7,0.1,1.4,0.1,2.1c0,0.1,0,0.3,0,0.4
			c0.1,0.7,0.1,1.4,0.2,2.1c0,0.1,0,0.1,0,0.2c0.1,0.7,0.2,1.4,0.3,2c0,0.1,0,0.2,0.1,0.3c0.1,0.7,0.3,1.4,0.4,2
			c0,0.1,0.1,0.3,0.1,0.4c0.2,0.7,0.3,1.4,0.5,2c0,0.1,0,0.2,0.1,0.2c0.2,0.6,0.4,1.3,0.6,1.9c0,0.1,0.1,0.2,0.1,0.2
			c0.2,0.7,0.5,1.3,0.7,2c0,0.1,0.1,0.2,0.1,0.3c0.3,0.7,0.5,1.3,0.8,1.9c0,0.1,0.1,0.2,0.1,0.3c0.3,0.6,0.6,1.3,0.9,1.9
			c0,0,0,0.1,0,0.1c0.3,0.6,0.7,1.3,1,1.9c0,0.1,0.1,0.2,0.2,0.3c0.3,0.6,0.7,1.2,1.1,1.8c0.1,0.1,0.1,0.2,0.2,0.2
			C78.6,92.5,79.4,93.7,80.3,94.9z"/>
		<path class="st3" d="M81,25.9c2.4-2.4,6.2-6,11.2-9.3c4.8-3.6,10.8-7.2,17.6-9.2c0.8-0.2,1.6-0.5,2.5-0.7c0.2,0,0.4-0.1,0.6-0.1
			c0.6-0.2,1.3-0.3,1.9-0.4c0.2,0,0.3-0.1,0.5-0.1c0.7-0.1,1.3-0.3,2-0.4c0.1,0,0.2,0,0.3,0c0.7-0.1,1.4-0.2,2.2-0.3
			c0.1,0,0.1,0,0.2,0c0.8-0.1,1.5-0.2,2.3-0.2c0,0,0,0,0,0c2.4-0.2,4.8-0.2,7.2,0c-5.5-1.4-11.3-2-17.3-1.5
			c-14.8,1.1-27.5,7.7-36.2,17.8c0.7,0.6,1.8,1.5,3.3,2.7C79.6,24.7,80.2,25.3,81,25.9z"/>
		<path class="st3" d="M164.3,30c0,0,0,0.1,0.1,0.1c0.3,0.5,0.5,1,0.8,1.5c0.1,0.1,0.1,0.3,0.2,0.4c0.2,0.5,0.5,1,0.7,1.5
			c0.1,0.2,0.1,0.3,0.2,0.5c0.2,0.5,0.4,1,0.6,1.4c0.1,0.2,0.1,0.3,0.2,0.5c0.6,1.5,1.1,3,1.5,4.5c0.1,0.3,0.2,0.7,0.3,1
			c0.1,0.4,0.2,0.7,0.3,1.1c0.1,0.4,0.2,0.8,0.3,1.1c0.1,0.3,0.1,0.7,0.2,1c0.1,0.4,0.2,0.8,0.2,1.3c0.1,0.3,0.1,0.6,0.2,0.9
			c0.1,0.5,0.1,1,0.2,1.5c0,0.3,0.1,0.5,0.1,0.8c0.1,0.8,0.2,1.5,0.2,2.3c0.4,0.8,0.8,1.5,1.1,2.1c-0.8-12-5.4-23-12.6-31.7
			c0,0,0,0,0,0.1C161,24.4,162.8,27.1,164.3,30z"/>
		<path class="st3" d="M71.4,86.8C71.4,86.8,71.4,86.8,71.4,86.8C71.4,86.8,71.4,86.8,71.4,86.8C71.4,86.8,71.4,86.8,71.4,86.8z"/>
		<path class="st3" d="M66,65c0.5-20.3,9.6-32.9,11.9-35.8c-2.3-1.9-4-3.3-5-4.2c-6.5,9-10.3,20.2-10.3,32.4
			c0,11.1,3.2,21.2,8.8,29.3C68,79.9,65.9,72.3,66,65z"/>
		<path class="st3" d="M170,129.5c0.1,0.1,0.1,0.2,0.2,0.3c0.3,0.4,0.5,0.6,0.5,0.6c-0.1-0.1-0.2-0.3-0.3-0.4c1.1,1.2,2.7,2,2.7,2
			c-0.6-0.4-1.2-0.7-1.6-1.1c0,0,0,0,0,0c0,0,0,0,0,0c0,0,0,0,0,0c0.1,0.1,0.3,0.2,0.4,0.3c0,0,0,0,0,0c1,0.7,2.1,1.2,3.2,1.7
			c2,0.9,3.8,1.4,4.1,1.5c0,0,0,0,0,0s0,0,0,0c-0.1,0-0.8-0.3-1.6-0.6c-2.8-1.1-8.2-3.5-7.5-6.2c0.8-3.6,9-4.4,9.4-3
			c0,0,0,0.1,0,0.1l0-0.7l-0.1-1.6c0,0-0.5,0.1-1.2,0.2c-1.5,0.3-4.2,1-6.2,2.2c0.1-0.1,0.2-0.1,0.2-0.1
			C168.6,126.3,169.2,128.4,170,129.5z"/>
		<path class="st3" d="M172.3,124.5c0,0,0.1,0,0.1-0.1C172.4,124.4,172.3,124.4,172.3,124.5z"/>
		<path class="st0" d="M127,257.5c5.9,0,11.1-2.4,14.9-6.3c0.2-0.2,0.2-0.2,0.4-0.4c3.4-3.7,5.5-8.7,5.5-14.1
			c0-11.5-9.3-20.9-20.9-20.9c-11.5,0-20.9,9.3-20.9,20.9C106.1,248.1,115.5,257.5,127,257.5z M107.9,240.7c0.2-0.3,0.4-0.6,0.7-1
			l-0.5,1.9C108,241.3,108,241,107.9,240.7z M108.4,242.6l0.9-3.9c0.2-0.3,0.4-0.7,0.7-1c0.1-0.1,0.2-0.3,0.3-0.4l-0.1,0.4l-1.2,6.5
			C108.8,243.7,108.6,243.2,108.4,242.6z M109.3,244.8l1.3-7.2l0.2-1.3c0.1-0.1,0.1-0.2,0.2-0.3c0.1-0.2,0.2-0.3,0.3-0.5
			c0.3-0.5,0.6-1,0.9-1.5l-0.1,0.7l-0.2,0.9l-0.3,1.9l-1.5,8.6C109.7,245.8,109.5,245.3,109.3,244.8z M113.4,250.7
			c0.2,0,0.4,0,0.7,0c0,0.2,0,0.5,0,0.7C113.9,251.1,113.7,250.9,113.4,250.7z M114.1,248c-0.4,0.1-0.8,0.1-1.1,0.1l1.1-6.5
			C114.1,244,114.1,246.1,114.1,248z M114.2,235.8c0,0.5,0,1.1,0,1.6c0,0.6,0,1.1,0,1.7l-1.6,9.1c-0.4,0.1-0.8,0.1-1.1,0.2l1.9-10.9
			l0.3-1.7l0.6-3.5C114.2,233.4,114.2,234.6,114.2,235.8z M113.8,232.4l-0.6,3.4l-0.3,1.8l-1.8,10.4c-0.3-0.4-0.6-0.8-0.8-1.2
			l1.6-9.2l0.3-1.9l0.3-1.6l0.2-1.1c0.6-1,1.1-2.1,1.6-3.2L113.8,232.4z M116.2,247c-0.1-3.1-0.2-6.5-0.3-9.6c0-0.5,0-1,0-1.5
			c0-1.9-0.1-3.7-0.1-5.2c0-1.4,0-2.5,0-3.4c0.1,0.1,0.2,0.2,0.3,0.4c0,0.7,0,1.7,0.1,2.8c0,1.5,0.1,3.4,0.1,5.4c0,0.5,0,0.9,0,1.4
			c0.1,3,0.2,6.3,0.3,9.2c0,0.4,0,0.8,0,1.2c-0.2,0-0.3,0-0.4,0.1C116.2,247.5,116.2,247.2,116.2,247z M116.5,253.1
			c-0.1-0.8-0.1-1.6-0.2-2.5c0.1,0,0.3,0,0.4,0c0.1,1.1,0.1,2.1,0.2,2.8C116.8,253.3,116.7,253.2,116.5,253.1z M117.3,230.3
			c0-0.5,0-0.9,0-1.3c0,0,0.1,0.1,0.1,0.1l0.4,1.3l1.8,5.7l0.4,1.2l0.6,2.1l0.5,1.5l2,6.3c-0.5,0-0.9,0.1-1.3,0.1l-1.3-4.2l-0.5-1.6
			l-1.3-4.1l-0.4-1.3l-0.8-2.5C117.4,232.3,117.4,231.2,117.3,230.3z M131.4,241.2C131.4,241.2,131.4,241.3,131.4,241.2L131.4,241.2
			l1.7,5.3c-0.4,0-0.8,0-1.3,0l-2-6.5C130.3,240.5,130.8,240.9,131.4,241.2L131.4,241.2L131.4,241.2L131.4,241.2z M136.4,246.5
			c-0.2,0-0.4,0-0.7,0c-0.2,0-0.4,0-0.6,0l-0.8-2.4l-0.3-1.1c0.5,0.3,1,0.6,1.5,0.9L136.4,246.5z M136.1,244.1
			c0.5,0.3,1,0.5,1.5,0.8l0.5,1.6c-0.1,0-0.3,0-0.4,0c-0.3,0-0.6,0-0.8,0l-0.5-1.6L136.1,244.1z M134.8,246.5c-0.4,0-0.9,0-1.3,0
			l-1.6-4.9c0.6,0.4,1.2,0.7,1.7,1.1L134.8,246.5z M131.3,246.6c-0.4,0-0.8,0-1.2,0.1l-2.5-7.9l-0.1-0.2c0,0,0,0,0.1,0.1
			c0.5,0.4,1,0.8,1.5,1.1L131.3,246.6z M127.7,240.2l2,6.4c-0.4,0-0.9,0-1.3,0.1l-0.5-1.6l-1.3-4.2l-1.2-3.8l-0.2-0.7
			c0.3,0.2,0.5,0.4,0.8,0.7c0.2,0.2,0.4,0.4,0.6,0.5c0.1,0.1,0.3,0.2,0.4,0.3L127.7,240.2z M126.5,242.2l1.5,4.6l0,0h0
			c-0.4,0-0.8,0-1.2,0.1l-0.4-1.1l-2.7-8.5l-0.3-1l-0.5-1.6c0.6,0.5,1.1,1,1.6,1.5l0,0.1l0.3,1L126.5,242.2z M122.9,236.1l0.3,1
			l3.1,9.7c-0.4,0-0.8,0.1-1.2,0.1l-3.1-9.8l-0.3-1.1l-0.2-0.5l-1.1-3.3c0.2,0.2,0.4,0.4,0.6,0.6c0.4,0.4,0.8,0.7,1.1,1.1
			L122.9,236.1z M120.7,234.4l0.5,1.6l0.4,1.1l0,0l3.1,9.7c-0.4,0-0.8,0.1-1.2,0.1l-2.2-7.1l-0.5-1.6l-0.4-1.2l-0.4-1.2l-1.7-5.6
			l-0.2-0.7c0.3,0.3,0.5,0.5,0.8,0.8c0.3,0.3,0.5,0.6,0.8,0.8c0,0,0.1,0.1,0.1,0.1l0.1,0.4L120.7,234.4z M117.6,237.3
			c0-0.4,0-0.9-0.1-1.3c0-0.3,0-0.5,0-0.8l0.3,0.8l0.4,1.3l1.5,4.7l0.5,1.6l1.1,3.7c-0.4,0-0.7,0.1-1.1,0.1l-0.7-2.3l-0.5-1.7
			l-1.2-4C117.7,238.7,117.6,238,117.6,237.3z M118.1,247.2c0-0.8-0.1-1.5-0.1-2.3c-0.1-1.2-0.1-2.5-0.2-3.8l0.9,2.7l0.5,1.7
			l0.6,1.8c-0.6,0.1-1.1,0.1-1.6,0.2C118.1,247.4,118.1,247.3,118.1,247.2z M139.8,251.4c-3.4,3-7.9,4.8-12.8,4.8
			c-2.9,0-5.7-0.7-8.2-1.8c-0.1-1-0.3-2.3-0.4-3.8c2.3-0.1,5-0.1,7.9-0.1c0.7,0,1.3,0,2,0c3.8,0,7.8,0.2,11.1,0.5
			c0.3,0,0.6,0.1,0.9,0.1C140.1,251.1,139.9,251.3,139.8,251.4z M141.1,250.1c-0.7-0.1-1.5-0.1-2.7-0.2c-2.3-0.1-5.6-0.2-10.3-0.2
			c-0.6,0-1.2,0-1.9,0c-1.5,0-3,0-4.7,0.1c1.6-0.1,3.2-0.1,4.7-0.2c0.6,0,1.3,0,1.9,0c3.8-0.1,7.3-0.1,10,0c1.4,0,2.6,0,3.4,0.1
			C141.4,249.8,141.2,250,141.1,250.1z M138.2,245.2c1.5,0.7,2.6,1.1,3.3,1.3c-1,0-1.9,0-2.9,0L138.2,245.2z M112.5,223.5
			c0.6-0.7,1.3-1.3,2-1.9c3.1-2.6,7-4.2,11.2-4.5c0.4,0,0.8,0,1.3,0c0.5,0,1,0,1.5,0.1c4.3,0.3,8.2,2,11.2,4.6
			c0.7,0.6,1.3,1.2,1.9,1.9c2.7,3.1,4.5,7.1,4.9,11.5c0,0.5,0.1,1,0.1,1.5c0,0.4,0,0.7,0,1.1c-0.2,2.8-0.9,5.5-2.1,7.8
			c-3.4-0.8-6.6-2-9.6-3.4c-0.4-0.2-0.9-0.4-1.3-0.7c-2.1-1.1-4.1-2.3-5.9-3.6c-0.4-0.3-0.7-0.5-1.1-0.8c0,0,0,0-0.1,0
			c-0.5-0.3-0.9-0.7-1.3-1c-0.7-0.5-1.4-1.1-2-1.6c-0.7-0.6-1.4-1.2-2.1-1.8c-0.6-0.5-1.1-1-1.6-1.5c-0.1-0.1-0.2-0.2-0.3-0.3
			c-0.8-0.8-1.4-1.5-1.9-2c0-0.5,0-0.8,0-1.2c0-0.9,0-1.4,0-1.4l-0.6-0.3l-0.4,0.4l-0.1,0.1c0,0,0,0.3,0,0.9
			c-0.1-0.2-0.2-0.3-0.3-0.4c0-0.5,0-0.9,0-1.1c0-0.2,0-0.3,0-0.3h-0.8l0,0.5l-0.5,0.1c0,0,0,1.1-0.1,2.8c-1.2,2.8-2.5,4.9-3.6,6.6
			c-0.6,0.9-1.1,1.6-1.6,2.2c-0.6,0.7-1.1,1.2-1.5,1.6c-0.1-0.5-0.1-1-0.2-1.5c0-0.4,0-0.9,0-1.3c0-0.4,0-0.9,0-1.3
			C107.8,230.7,109.6,226.6,112.5,223.5z"/>
	</g>
	<g>
		<path class="st2" d="M131.2,119h-10.7c-2.6,0-4.7,2.1-4.7,4.7V160c0,2.6,2.1,4.7,4.7,4.7h10.7c2.6,0,4.7-2.1,4.7-4.7v-36.2
			C135.9,121.1,133.8,119,131.2,119"/>
		<path class="st2" d="M131.2,119h-10.7c-2.6,0-4.7,2.1-4.7,4.7V160c0,2.6,2.1,4.7,4.7,4.7h10.7c2.6,0,4.7-2.1,4.7-4.7v-36.2
			C135.9,121.1,133.8,119,131.2,119"/>
		<path class="st4" d="M128.5,127.4l0,0.2c0.3,0.2,0.5,0.3,0.8,0.6c0.9,0.5,1.9,1.5,1.8,4.9c0.2,0.7,0.4,2.2,0.6,2.6
			c0.5,0.9,0.8,1.5,0.9,2.3c0,0,0.1,1.3,0.3,1.4c0.9,0.2,0.6,0.3,0.8,0.4c0.1,0.2,0.7,0.2,0.7,0.7c0.2,0.2,0.3,0.5,0.4,0.8v-17.5
			c0-2-1.6-3.6-3.6-3.6h-3.5c0.6,0.2,0.9,0.4,1.1,0.8c0.4,0,1,1,0.2,2.5c0.4,0.2,0.1,0.6-0.2,1c-0.1,0.1-0.2,0.4-0.4,0.4
			c-0.3,0.7-0.7,1.3-1,1.3c-0.1,0.1-0.1,0.4,0,0.5C127.7,126.9,128.2,127.2,128.5,127.4"/>
		<path class="st4" d="M134.8,143.6c-0.5,1.2-1.6,2-3,2c-1.8,0-3.2-1.4-3.2-3.2c0-1.5,1-2.8,2.5-3.1c-0.4-0.9-1.2-2.4-1.4-2.9
			c-0.2-0.5-0.8-3.6-0.9-4.2c0-0.1-1.4,0.8-1.4,0.8c-0.1,0.1-1,2.5-1.1,2.7c0,0.1,0,0.4,0,0.4s0.5,0.1,0.7,0.9
			c0.3,0.8,1.1,3.8,1.1,3.8s-0.2,0.2-0.2,0.2c1,3.4,0.7,4.9,1.1,5.9c0.6,1.4,0.7,1.2,1.2,2.4c0.4,0.9,0.7,4.3,0.9,4.4
			c0.5,0.7,0.8,1.2,0.8,1.6c0,0.4-0.5,1.6-0.3,2.2c0.1,0.4,0.2,1.3,0.3,1.5c0,0,0.2,0.3,0.1,0.5c0,0.1-0.1,0.1-0.1,0.2
			c0.3,1.1,1.3,2.9-0.3,3.9h0c1.7-0.3,3-1.8,3-3.6V143.6z"/>
		<path class="st5" d="M130.7,159.3c-0.6-0.5-0.2-0.7-0.2-0.9c-0.4-1.6-1.6-2.5-1-3.1c-0.2-0.5-0.5-1.2-0.5-1.2
			c-2-1.1-3.6-3-3.9-3.2c-0.3-0.4-0.9-0.7-1-1.1c-0.5-0.4-2.8-3.7-3.3-4.9l-0.9-0.1c-0.4-1.7-1.8-3.2-1.9-4.9c0-0.7,0.3-2.1,0.4-2.4
			c0.1-0.3,0.7-0.8,0.7-0.8v-0.5c-2,0.1-1.5-0.2-1.8-0.9c-0.2-0.6-0.1-0.7,0-1.1c0.3-1.1,1.2-2.9,1.6-3.7c0.1-0.4,0.5-1.4,0.5-1.4
			c1.5-3.1,2.1-2.9,3.9-3l0.1-0.1c1.8-0.1,1.5-0.2,1.8-2c-0.3,0.1-0.3-0.5-0.3-0.5c-0.1-1,0.3-0.8,0.5-0.8c0-1.6,0.2-2.1,1.4-2.6
			h-6.1c-2,0-3.6,1.6-3.6,3.6V160c0,2,1.6,3.6,3.6,3.6h10.7C129.9,162.9,130.6,161.7,130.7,159.3"/>
		<path class="st2" d="M122.5,161.3v-6.6h1.3c0.7,0,1.2,0.4,1.2,1.3v1c0,0.6-0.2,0.9-0.4,1c0.3,0.2,0.4,0.5,0.4,1v1
			c0,0.9-0.5,1.3-1.2,1.3H122.5z M123.4,158.5v2h0.3c0.3,0,0.4-0.2,0.4-0.5v-1.1c0-0.3-0.1-0.4-0.4-0.4H123.4z M123.4,155.6v2.2h0.3
			c0.3,0,0.4-0.1,0.4-0.5V156c0-0.3-0.1-0.4-0.4-0.4H123.4z M127,160h-0.8l-0.1,1.3h-0.9l0.8-6.6h1.3l0.8,6.6h-0.9L127,160z
			 M126.6,155.5L126.6,155.5c-0.1,0.8-0.2,2.2-0.2,2.6l-0.1,1.1h0.7l-0.1-1.1C126.8,157.7,126.7,156.3,126.6,155.5 M119.9,161.3
			h-0.8v-6.6h1.2l1,5.4c-0.1-1.3-0.2-2.8-0.2-4.2v-1.2h0.8v6.6h-1.1l-1-5.3c0.1,1.2,0.1,2.2,0.1,3.2V161.3z"/>
	</g>
</g>
</svg>
